<?xml version="1.0" encoding="UTF-8"?>
<svg id="Layer_1" data-name="Layer 1" xmlns="http://www.w3.org/2000/svg" xmlns:xlink="http://www.w3.org/1999/xlink" viewBox="0 0 240.95 56.69">
  <defs>
    <style>
      .cls-1 {
        fill: #fff;
      }

      .cls-2 {
        font-family: GTMaru-Bold, 'GT Maru';
        font-size: 14.31px;
        font-weight: 700;
      }

      .cls-2, .cls-3 {
        fill: #0061af;
      }

      .cls-4 {
        letter-spacing: -.06em;
      }

      .cls-5 {
        letter-spacing: -.06em;
      }

      .cls-6 {
        letter-spacing: -.06em;
      }

      .cls-7 {
        letter-spacing: .04em;
      }

      .cls-8 {
        letter-spacing: -.06em;
      }

      .cls-9 {
        letter-spacing: -.12em;
      }

      .cls-10 {
        letter-spacing: .04em;
      }

      .cls-11 {
        letter-spacing: -.07em;
      }

      .cls-12 {
        clip-path: url(#clippath-1);
      }

      .cls-13 {
        letter-spacing: -.05em;
      }

      .cls-14 {
        letter-spacing: -.06em;
      }

      .cls-15 {
        clip-path: url(#clippath);
      }

      .cls-16 {
        letter-spacing: -.06em;
      }

      .cls-17 {
        fill: none;
      }

      .cls-18 {
        letter-spacing: -.06em;
      }

      .cls-19 {
        letter-spacing: -.03em;
      }

      .cls-20 {
        letter-spacing: -.06em;
      }

      .cls-21 {
        letter-spacing: -.06em;
      }

      .cls-22 {
        letter-spacing: -.06em;
      }

      .cls-23 {
        letter-spacing: -.06em;
      }

      .cls-24 {
        letter-spacing: .04em;
      }
    </style>
    <clipPath id="clippath">
      <rect class="cls-17" x="2.84" y="6.8" width="235.27" height="31.18"/>
    </clipPath>
    <clipPath id="clippath-1">
      <rect class="cls-17" y="3.4" width="240.95" height="56.69"/>
    </clipPath>
  </defs>
  <g class="cls-15">
    <path class="cls-3" d="m224.79,36.37c-4.48,0-8.09-1.35-10.82-4.06-2.72-2.68-4.08-6.21-4.08-10.58s1.44-7.95,4.34-10.76c2.86-2.77,6.49-4.16,10.88-4.16,3.73,0,6.96.95,9.7,2.86,1.5,1.05,2.25,2.35,2.25,3.88,0,1.07-.36,1.91-1.08,2.52-.64.55-1.43.83-2.35.83-1.16,0-2.34-.34-3.55-1.03-1.72-.96-3.48-1.44-5.28-1.44-2.01,0-3.67.68-4.97,2.03-1.29,1.37-1.93,3.09-1.93,5.18s.64,3.75,1.93,5.06c1.31,1.35,3.06,2.03,5.24,2.03,3.01,0,4.67-.95,4.99-2.86h-4.53c-1.05,0-1.94-.34-2.68-1.02-.74-.7-1.1-1.55-1.1-2.56,0-1.17.37-2.08,1.1-2.74.7-.62,1.59-.93,2.68-.93h8.79c1.06,0,1.94.32,2.64.97.78.74,1.16,1.77,1.16,3.09,0,4.48-1.27,7.92-3.8,10.33-2.35,2.23-5.53,3.35-9.52,3.35"/>
    <path class="cls-3" d="m197.62,23.22l-3.37-9.1-3.39,9.1h6.76Zm-14.64,13.14c-.99,0-1.84-.36-2.56-1.08-.72-.72-1.08-1.56-1.08-2.52,0-.78.19-1.65.57-2.62l3.45-8.6,3.45-8.6c.85-2.14,1.83-3.68,2.92-4.61,1.16-1.01,2.66-1.52,4.51-1.52s3.36.51,4.53,1.52c1.09.93,2.06,2.47,2.92,4.61l6.9,17.21c.38.97.57,1.85.57,2.62,0,.96-.36,1.8-1.08,2.52-.72.72-1.58,1.08-2.56,1.08-2,0-3.3-.83-3.92-2.5l-1.22-3.31h-12.24l-1.22,3.31c-.62,1.67-1.93,2.5-3.92,2.5"/>
    <path class="cls-3" d="m162.52,36.36c-1.17,0-2.12-.37-2.83-1.11-.71-.74-1.07-1.71-1.07-2.91v-7.1h-10.02v7.1c0,1.2-.36,2.17-1.07,2.91-.71.74-1.66,1.11-2.83,1.11s-2.12-.37-2.83-1.11c-.71-.74-1.07-1.71-1.07-2.91V10.91c0-1.2.36-2.17,1.07-2.91.71-.74,1.65-1.11,2.83-1.11s2.12.37,2.83,1.11c.71.74,1.07,1.71,1.07,2.91v6.98h10.02v-6.98c0-1.2.36-2.17,1.07-2.91.71-.74,1.66-1.11,2.83-1.11s2.12.37,2.83,1.11c.71.74,1.07,1.71,1.07,2.91v21.44c0,1.2-.36,2.17-1.07,2.91-.71.74-1.66,1.11-2.83,1.11"/>
    <path class="cls-3" d="m115.76,36.27c-1.12,0-2.02-.35-2.71-1.04-.71-.69-1.06-1.58-1.06-2.67,0-1.16.51-2.31,1.53-3.45l13.06-14.81h-10.93c-1.12,0-2.03-.34-2.75-1.02-.72-.69-1.08-1.58-1.08-2.65s.36-1.99,1.08-2.69c.72-.69,1.64-1.04,2.75-1.04h18.46c1.09,0,1.99.35,2.69,1.04.72.71,1.08,1.6,1.08,2.69,0,1.14-.52,2.32-1.57,3.53l-12.79,14.71h10.97c1.12,0,2.03.35,2.75,1.04.72.71,1.08,1.6,1.08,2.69s-.36,1.96-1.08,2.65c-.72.68-1.64,1.02-2.75,1.02h-18.73Z"/>
    <path class="cls-3" d="m91.39,36.27c-1.23,0-2.2-.38-2.92-1.14-.74-.76-1.1-1.76-1.1-3V11.03c0-1.24.37-2.24,1.1-3,.72-.76,1.69-1.14,2.92-1.14h14.48c1.2,0,2.17.37,2.92,1.1.75.75,1.12,1.71,1.12,2.88s-.38,2.13-1.12,2.88c-.75.73-1.72,1.1-2.92,1.1h-10.46v2.96h9.62c1.1,0,2.01.35,2.74,1.04.71.71,1.06,1.6,1.06,2.67s-.36,1.96-1.08,2.65c-.72.68-1.63,1.02-2.72,1.02h-9.62v3.12h10.5c1.2,0,2.17.37,2.92,1.1.76.75,1.14,1.71,1.14,2.88s-.38,2.13-1.14,2.88c-.75.74-1.72,1.1-2.92,1.1h-14.52Z"/>
    <path class="cls-3" d="m72.05,36.37c-3.8,0-6.83-1.08-9.09-3.23-2.29-2.16-3.43-5.05-3.43-8.67v-13.56c0-1.2.36-2.16,1.08-2.9.74-.74,1.69-1.1,2.86-1.1s2.08.37,2.78,1.1c.7.73,1.04,1.7,1.04,2.9v12.85c0,1.39.45,2.54,1.34,3.43.88.89,2.02,1.34,3.41,1.34s2.54-.45,3.43-1.34c.88-.88,1.32-2.02,1.32-3.43v-12.85c0-1.2.35-2.16,1.05-2.9.71-.74,1.64-1.1,2.8-1.1s2.12.37,2.84,1.1c.72.73,1.08,1.7,1.08,2.9v13.56c0,3.63-1.14,6.52-3.41,8.67-2.27,2.15-5.31,3.23-9.1,3.23"/>
    <path class="cls-3" d="m46.13,19.5c.82,0,1.49-.24,2.01-.7.54-.48.81-1.1.81-1.85s-.27-1.37-.81-1.85c-.52-.47-1.19-.7-2.01-.7h-5.07v5.11h5.07Zm-9.04,16.86c-1.19,0-2.15-.38-2.88-1.13-.72-.75-1.09-1.74-1.09-2.96V10.97c0-1.22.36-2.21,1.09-2.96.72-.75,1.68-1.13,2.88-1.13h8.53c3.44,0,6.23.93,8.37,2.8,2.15,1.86,3.22,4.28,3.22,7.26,0,3.47-1.4,6.15-4.21,8.03l3.4,4.99c.71,1.03,1.07,2.07,1.07,3.1,0,.89-.38,1.66-1.15,2.31-.78.66-1.67.99-2.68.99-1.4,0-2.47-.56-3.22-1.69l-5.11-7.66h-4.27v5.27c0,1.22-.36,2.21-1.09,2.96-.72.75-1.68,1.13-2.88,1.13"/>
    <path class="cls-3" d="m17.74,36.16c-4.47,0-8.07-1.35-10.79-4.05-2.71-2.67-4.07-6.19-4.07-10.55s1.44-7.92,4.32-10.73c2.86-2.76,6.47-4.15,10.85-4.15,3.72,0,6.95.95,9.67,2.85,1.5,1.05,2.24,2.34,2.24,3.87,0,1.06-.36,1.9-1.08,2.51-.64.55-1.42.83-2.34.83-1.15,0-2.33-.34-3.54-1.02-1.72-.96-3.47-1.43-5.27-1.43-2.01,0-3.66.67-4.95,2.02-1.28,1.36-1.93,3.08-1.93,5.17s.64,3.74,1.93,5.05c1.31,1.35,3.05,2.02,5.23,2.02,3,0,4.66-.95,4.97-2.85h-4.52c-1.05,0-1.94-.34-2.67-1.02-.73-.69-1.1-1.54-1.1-2.55,0-1.16.37-2.08,1.1-2.73.69-.62,1.59-.92,2.67-.92h8.77c1.06,0,1.94.32,2.63.96.77.73,1.16,1.76,1.16,3.08,0,4.47-1.26,7.9-3.79,10.29-2.35,2.23-5.51,3.34-9.5,3.34"/>
    <g>
      <path class="cls-1" d="m136.31,31.53c-.27,0-.48.22-.48.48,0,.57-.17.98-.46,1.29-.31.31-.71.48-1.24.48h-19.13c-.27,0-.48.22-.48.48s.22.48.48.48h19.13c.76,0,1.42-.25,1.93-.76,0,0,0,0,0,0l-.35-.34h0s.35.34.35.34c.5-.52.74-1.19.74-1.96,0-.27-.22-.48-.48-.48"/>
      <path class="cls-1" d="m116.1,9.48h18.79c.27,0,.48-.22.48-.48s-.21-.48-.48-.48h-18.79c-.76,0-1.42.25-1.93.76h0s.35.34.35.34h0s-.35-.33-.35-.33c-.5.52-.74,1.19-.74,1.96,0,.27.22.48.48.48s.48-.22.48-.48c0-.57.16-.98.46-1.29.31-.31.71-.48,1.24-.48"/>
      <path class="cls-1" d="m145.07,9.48c.27,0,.48-.22.48-.48s-.22-.48-.48-.48c-.76,0-1.42.25-1.93.76h0s.35.34.35.34h0s-.35-.33-.35-.33c-.5.52-.74,1.19-.74,1.96,0,.27.22.48.48.48s.48-.22.48-.48c0-.57.16-.98.46-1.29.31-.31.71-.48,1.24-.48"/>
      <path class="cls-1" d="m162.92,9.48c.27,0,.48-.22.48-.48s-.22-.48-.48-.48c-.76,0-1.42.25-1.93.76,0,0,0,0,0,0l.35.33h0s-.35-.33-.35-.33c-.5.52-.74,1.19-.74,1.96,0,.27.22.48.48.48s.48-.22.48-.48c0-.57.16-.98.46-1.29.31-.31.71-.48,1.24-.48"/>
      <path class="cls-1" d="m164.35,31.53c-.27,0-.48.22-.48.48,0,.57-.17.98-.46,1.29-.31.31-.71.48-1.24.48-.27,0-.48.22-.48.48s.22.48.48.48c.76,0,1.42-.25,1.93-.76,0,0,0,0,0,0l-.35-.34h0s.35.34.35.34c.5-.52.74-1.19.74-1.96,0-.27-.22-.48-.48-.48"/>
      <path class="cls-1" d="m146.5,31.53c-.27,0-.48.22-.48.48,0,.57-.17.98-.46,1.29-.31.31-.71.48-1.24.48-.27,0-.48.22-.48.48s.22.48.48.48c.76,0,1.42-.25,1.93-.76,0,0,0,0,0,0l-.35-.34h0s.35.34.35.34c.5-.52.74-1.19.74-1.96,0-.27-.22-.48-.48-.48"/>
      <path class="cls-1" d="m18.62,9.19c.27,0,.48-.22.48-.48s-.22-.48-.48-.48c-4.04,0-7.41,1.28-10.07,3.86h0s.33.34.33.34h0s-.33-.34-.33-.34c-2.69,2.61-4.03,5.95-4.03,9.97,0,.27.22.48.48.48s.48-.22.48-.48c0-3.78,1.25-6.86,3.73-9.28,2.46-2.38,5.58-3.59,9.4-3.59"/>
      <path class="cls-1" d="m225.74,9.39c.27,0,.48-.22.48-.48s-.22-.48-.48-.48c-4.04,0-7.41,1.28-10.07,3.86h0s.33.34.33.34h0l-.33-.34c-2.69,2.61-4.02,5.95-4.02,9.97,0,.27.22.48.48.48s.48-.22.48-.48c0-3.78,1.25-6.86,3.73-9.28,2.46-2.38,5.58-3.59,9.4-3.59"/>
      <path class="cls-1" d="m91.83,9.39h14.79c.27,0,.48-.22.48-.48s-.22-.48-.48-.48h-14.79c-.83,0-1.55.27-2.1.83h0s.35.34.35.34h0s-.35-.34-.35-.34c-.55.56-.8,1.29-.8,2.13,0,.27.22.48.48.48s.48-.22.48-.48c0-.64.19-1.11.53-1.46.35-.35.81-.54,1.41-.54"/>
      <path class="cls-1" d="m78.81,11.87c.27,0,.48-.22.48-.48,0-.64.19-1.11.53-1.46.35-.35.81-.54,1.41-.54.27,0,.48-.22.48-.48s-.22-.48-.48-.48c-.83,0-1.55.27-2.1.83,0,0,0,0,0,0l.34.34h0s-.35-.34-.35-.34c-.55.56-.8,1.29-.8,2.13,0,.27.22.48.48.48"/>
      <path class="cls-1" d="m63.97,8.42c-.83,0-1.55.27-2.1.83,0,0,0,0,0,0l.34.33h0s-.35-.33-.35-.33c-.55.56-.8,1.29-.8,2.13,0,.27.22.48.48.48s.48-.22.48-.48c0-.64.19-1.11.53-1.46.35-.35.81-.54,1.41-.54.27,0,.48-.22.48-.48s-.22-.48-.48-.48"/>
      <path class="cls-1" d="m46.83,8.42h-9.14c-.83,0-1.55.27-2.1.83,0,0,0,0,0,0l.35.33h0s-.35-.33-.35-.33c-.55.56-.8,1.29-.8,2.13,0,.27.22.48.48.48s.48-.22.48-.48c0-.64.19-1.11.53-1.46.35-.35.81-.54,1.41-.54h9.14c.27,0,.48-.22.48-.48s-.22-.48-.48-.48"/>
      <path class="cls-1" d="m28.86,23.14c-.27,0-.48.22-.48.48,0,3.07-.92,5.51-2.71,7.36-1.83,1.85-4.21,2.79-7.17,2.79-.27,0-.48.22-.48.48s.22.48.48.48c3.19,0,5.82-1.02,7.86-3.07l-.34-.34.34.34s0,0,0,0c2-2.06,2.99-4.75,2.99-8.03,0-.27-.22-.48-.48-.48"/>
      <path class="cls-1" d="m82.57,23.14c-.27,0-.48.22-.48.48,0,3.07-.92,5.51-2.71,7.36-1.83,1.85-4.21,2.79-7.17,2.79-.27,0-.48.22-.48.48s.22.48.48.48c3.19,0,5.82-1.02,7.86-3.07l-.34-.34.34.34s0,0,0,0c2-2.06,2.99-4.75,2.99-8.03,0-.27-.22-.48-.48-.48"/>
      <path class="cls-1" d="m235.99,23.14c-.27,0-.48.22-.48.48,0,3.07-.91,5.51-2.71,7.36-1.83,1.85-4.21,2.79-7.17,2.79-.27,0-.48.22-.48.48s.22.48.48.48c3.19,0,5.82-1.02,7.86-3.07l-.34-.34.34.34s0,0,0,0c2-2.06,2.99-4.75,2.99-8.03,0-.27-.22-.48-.48-.48"/>
      <path class="cls-1" d="m107.86,31.53c-.27,0-.48.22-.48.48,0,.57-.17.98-.47,1.29-.31.31-.71.48-1.24.48h-15.16c-.27,0-.48.22-.48.48s.22.48.48.48h15.16c.76,0,1.42-.25,1.93-.76,0,0,0,0,0,0l-.35-.34h0s.35.34.35.34c.5-.52.74-1.19.74-1.96,0-.27-.22-.48-.48-.48"/>
      <path class="cls-1" d="m27.21,20.6c.27,0,.48-.22.48-.48s-.22-.48-.48-.48h-8.92c-.77,0-1.43.25-1.94.77-.5.52-.74,1.19-.74,1.96,0,.27.22.48.48.48s.48-.22.48-.48c0-.57.17-.98.47-1.29.3-.31.7-.47,1.25-.47h8.92Z"/>
      <path class="cls-1" d="m55.5,31.53c-.27,0-.48.22-.48.48,0,.39-.04.63-.11.8-.06.17-.16.31-.33.49-.32.32-.85.53-1.24.53-.27,0-.48.22-.48.48s.22.48.48.48c.66,0,1.43-.32,1.93-.82,0,0,0,0,0,0l-.34-.34h0s.35.34.35.34c.23-.24.42-.49.54-.83.12-.33.17-.69.17-1.14,0-.27-.22-.48-.48-.48"/>
      <path class="cls-1" d="m39,31.53c-.27,0-.48.22-.48.48,0,.39-.04.63-.11.8-.06.17-.16.31-.33.49-.32.32-.85.53-1.24.53-.27,0-.48.22-.48.48s.22.48.48.48c.66,0,1.43-.32,1.93-.82,0,0,0,0,0,0l-.34-.34h0s.35.34.35.34c.23-.24.42-.49.54-.83.12-.33.17-.69.17-1.14,0-.27-.22-.48-.48-.48"/>
      <path class="cls-1" d="m234.34,20.6c.27,0,.48-.22.48-.48s-.22-.48-.48-.48h-8.92c-.77,0-1.43.25-1.94.77-.5.52-.74,1.19-.74,1.96,0,.27.21.48.48.48s.48-.22.48-.48c0-.57.17-.98.47-1.29.3-.31.7-.47,1.25-.47h8.92Z"/>
      <path class="cls-1" d="m194.68,8.42c-1.59,0-2.93.44-3.97,1.35,0,0,0,0,0,0t0,0c-.97.83-1.79,2.15-2.49,3.92l-2.79,6.97c-.1.25.02.53.27.63.25.1.53-.02.63-.27l2.79-6.97c.68-1.7,1.43-2.87,2.23-3.55,0,0,0,0,0,0,.83-.73,1.93-1.11,3.34-1.11.27,0,.48-.22.48-.48s-.22-.48-.48-.48"/>
      <path class="cls-1" d="m206.42,30.12c-.22.15-.27.45-.12.67.32.46.41.92.41,1.3,0,.45-.15.83-.48,1.18-.33.34-.69.5-1.11.5-.27,0-.48.22-.48.48s.22.48.48.48c.7,0,1.31-.28,1.81-.8.49-.52.75-1.14.75-1.84,0-.55-.14-1.2-.59-1.85-.15-.22-.45-.27-.67-.12"/>
      <path class="cls-1" d="m185.39,31.78c-.26-.07-.52.08-.59.34-.17.61-.42,1.02-.72,1.27-.29.25-.68.39-1.18.39-.27,0-.48.22-.48.48s.22.48.48.48c.7,0,1.31-.2,1.81-.62.49-.42.82-1.02,1.02-1.75.07-.26-.08-.52-.34-.59"/>
    </g>
    <path class="cls-3" d="m233.31,53.39c-1.56,0-2.82-.47-3.77-1.42-.95-.93-1.42-2.16-1.42-3.69s.5-2.77,1.51-3.75c1-.97,2.26-1.45,3.79-1.45,1.3,0,2.43.33,3.38,1,.52.37.78.82.78,1.35,0,.37-.13.66-.38.88-.22.19-.5.29-.82.29-.4,0-.82-.12-1.24-.36-.6-.33-1.21-.5-1.84-.5-.7,0-1.28.24-1.73.71-.45.48-.67,1.08-.67,1.81s.22,1.31.67,1.77c.46.47,1.07.71,1.83.71,1.05,0,1.63-.33,1.74-1h-1.58c-.37,0-.68-.12-.94-.36-.26-.24-.38-.54-.38-.89,0-.41.13-.73.38-.95.24-.22.56-.32.94-.32h3.07c.37,0,.68.11.92.34.27.26.4.62.4,1.08,0,1.56-.44,2.76-1.33,3.6-.82.78-1.93,1.17-3.32,1.17m-14.18-.03c-.41,0-.74-.13-.98-.38-.25-.26-.37-.59-.37-1.01v-7.33c0-.47.13-.84.38-1.11.25-.27.59-.41,1.03-.41.3,0,.56.07.78.22.22.15.49.43.8.85l3.21,4.27v-3.94c0-.42.12-.75.37-1.01.25-.26.57-.39.98-.39s.74.13.98.39c.25.26.37.59.37,1.01v7.32c0,.47-.12.84-.37,1.11-.25.27-.58.41-1,.41-.51,0-1.01-.32-1.51-.96l-3.32-4.23v3.8c0,.42-.12.75-.37,1.01-.25.26-.57.38-.98.38m-7.46.03c-1.32,0-2.38-.38-3.17-1.13-.8-.75-1.2-1.76-1.2-3.03v-4.73c0-.42.13-.75.38-1.01.26-.26.59-.39,1-.39s.73.13.97.39c.24.26.36.59.36,1.01v4.48c0,.49.16.88.47,1.2.31.31.7.47,1.19.47s.88-.15,1.2-.47c.31-.31.46-.71.46-1.2v-4.48c0-.42.12-.75.36-1.01.25-.26.57-.39.98-.39s.74.13.99.39.38.59.38,1.01v4.73c0,1.27-.4,2.27-1.19,3.03-.79.75-1.85,1.13-3.18,1.13m-13.65-.03c-.41,0-.74-.13-.98-.38-.25-.26-.37-.59-.37-1.01v-7.33c0-.47.13-.84.38-1.11.25-.27.59-.41,1.03-.41.3,0,.56.07.78.22.22.15.49.43.8.85l3.21,4.27v-3.94c0-.42.12-.75.37-1.01.25-.26.57-.39.98-.39s.74.13.98.39c.25.26.37.59.37,1.01v7.32c0,.47-.12.84-.37,1.11-.25.27-.58.41-1,.41-.51,0-1.01-.32-1.51-.96l-3.32-4.23v3.8c0,.42-.12.75-.37,1.01-.25.26-.57.38-.98.38m-6.33-4.55l-1.18-3.18-1.18,3.18h2.36Zm-5.11,4.58c-.34,0-.64-.13-.89-.38s-.38-.55-.38-.88c0-.27.07-.57.2-.91l2.4-6c.3-.75.64-1.28,1.02-1.61.4-.35.93-.53,1.57-.53s1.17.18,1.58.53c.38.33.72.86,1.02,1.61l2.41,6c.13.34.2.64.2.91,0,.34-.13.63-.38.88s-.55.38-.89.38c-.7,0-1.15-.29-1.37-.87l-.43-1.15h-4.27l-.43,1.15c-.22.58-.67.87-1.37.87m-7.46-.21c-.41,0-.74-.13-.98-.38-.25-.26-.37-.59-.37-1.01v-7.28c0-.42.12-.75.37-1.01.25-.26.57-.39.98-.39s.74.13.98.39c.25.26.37.59.37,1.01v5.99h3.27c.4,0,.73.12.98.37.26.25.39.57.39.97s-.13.72-.39.97c-.25.25-.58.37-.98.37h-4.63Zm-6.31-5.53c.29,0,.52-.09.7-.26.18-.17.27-.39.27-.65s-.09-.48-.27-.65c-.18-.17-.41-.25-.7-.25h-1.75v1.8h1.75Zm-3.1,5.7c-.41,0-.74-.13-.98-.38-.25-.26-.37-.59-.37-1.01v-7.28c0-.42.12-.75.37-1.01.25-.26.57-.39.98-.39h2.86c1.21,0,2.19.31,2.93.94.74.63,1.11,1.47,1.11,2.53s-.37,1.9-1.11,2.53c-.74.62-1.71.94-2.93.94h-1.51v1.74c0,.42-.12.75-.37,1.01-.25.26-.57.38-.98.38m-13.39.83c-.38,0-.69-.11-.93-.33-.25-.22-.37-.5-.37-.85,0-.16.05-.35.15-.55l4.27-8.9c.22-.46.4-.77.55-.92.21-.23.5-.34.85-.34.38,0,.69.11.93.33.25.22.37.5.37.85,0,.16-.05.35-.15.55l-4.27,8.9c-.22.46-.4.77-.55.92-.21.23-.5.34-.85.34m-11.86-.79c-1.56,0-2.82-.47-3.77-1.42-.95-.93-1.42-2.16-1.42-3.69s.5-2.77,1.51-3.75c1-.97,2.26-1.45,3.79-1.45,1.3,0,2.43.33,3.38,1,.52.37.78.82.78,1.35,0,.37-.13.66-.38.88-.22.19-.5.29-.82.29-.4,0-.82-.12-1.24-.36-.6-.33-1.21-.5-1.84-.5-.7,0-1.28.24-1.73.71-.45.48-.67,1.08-.67,1.81s.22,1.31.67,1.77c.46.47,1.07.71,1.83.71,1.05,0,1.63-.33,1.74-1h-1.58c-.37,0-.68-.12-.93-.36-.26-.24-.38-.54-.38-.89,0-.41.13-.73.38-.95.24-.22.56-.32.93-.32h3.07c.37,0,.68.11.92.34.27.26.41.62.41,1.08,0,1.56-.44,2.76-1.33,3.6-.82.78-1.93,1.17-3.32,1.17m-14.18-.03c-.41,0-.74-.13-.98-.38-.25-.26-.37-.59-.37-1.01v-7.33c0-.47.13-.84.38-1.11.25-.27.59-.41,1.03-.41.3,0,.56.07.78.22.22.15.49.43.8.85l3.21,4.27v-3.94c0-.42.12-.75.37-1.01.25-.26.57-.39.98-.39s.74.13.98.39c.25.26.37.59.37,1.01v7.32c0,.47-.12.84-.37,1.11-.25.27-.58.41-1,.41-.51,0-1.01-.32-1.51-.96l-3.32-4.23v3.8c0,.42-.12.75-.37,1.01-.25.26-.58.38-.98.38m-7.46.03c-1.32,0-2.38-.38-3.17-1.13-.8-.75-1.2-1.76-1.2-3.03v-4.73c0-.42.13-.75.38-1.01.26-.26.59-.39,1-.39s.73.13.97.39c.24.26.36.59.36,1.01v4.48c0,.49.16.88.47,1.2.31.31.7.47,1.19.47s.88-.15,1.2-.47c.31-.31.46-.71.46-1.2v-4.48c0-.42.12-.75.37-1.01.25-.26.57-.39.98-.39s.74.13.99.39.38.59.38,1.01v4.73c0,1.27-.4,2.27-1.19,3.03-.79.75-1.85,1.13-3.18,1.13m-13.05-.21c-.38,0-.68-.12-.91-.35-.24-.23-.36-.53-.36-.9,0-.39.17-.78.52-1.16l4.4-4.99h-3.68c-.38,0-.68-.11-.93-.34-.24-.23-.37-.53-.37-.89s.12-.67.37-.91c.24-.23.55-.35.93-.35h6.22c.37,0,.67.12.91.35.24.24.36.54.36.91,0,.38-.18.78-.53,1.19l-4.31,4.96h3.7c.38,0,.68.12.93.35.24.24.36.54.36.91s-.12.66-.36.89c-.24.23-.55.34-.93.34h-6.31Zm-3.94.17c-.41,0-.74-.13-.98-.38-.25-.26-.37-.59-.37-1.01v-7.45c0-.42.12-.75.37-1.01.25-.26.58-.39.98-.39s.74.13.98.39c.25.26.37.59.37,1.01v7.45c0,.42-.12.75-.37,1.01-.25.26-.57.38-.98.38m-9.21-.17c-.41,0-.74-.13-.98-.38-.25-.26-.37-.59-.37-1.01v-7.11c0-.42.12-.75.37-1.01.24-.26.57-.39.98-.39h4.87c.4,0,.73.12.98.37.25.25.38.57.38.97s-.13.72-.38.97c-.25.25-.58.37-.98.37h-3.52v1h3.24c.37,0,.68.12.92.35.24.24.36.54.36.9s-.12.66-.36.89c-.24.23-.55.34-.91.34h-3.24v1.05h3.53c.4,0,.73.12.98.37.26.25.39.57.39.97s-.13.72-.39.97c-.25.25-.58.37-.98.37h-4.89Zm-4.62.17c-.41,0-.74-.13-.98-.38-.25-.26-.37-.59-.37-1.01v-2.47h-3.48v2.47c0,.42-.12.75-.37,1.01-.25.26-.58.38-.98.38s-.74-.13-.98-.38c-.25-.26-.37-.59-.37-1.01v-7.45c0-.42.12-.75.37-1.01.25-.26.57-.39.98-.39s.74.13.98.39c.25.26.37.59.37,1.01v2.43h3.48v-2.43c0-.42.12-.75.37-1.01.25-.26.58-.39.98-.39s.74.13.98.39c.25.26.37.59.37,1.01v7.45c0,.42-.12.75-.37,1.01-.25.26-.57.38-.98.38m-19.58.83c-.38,0-.69-.11-.94-.33-.25-.22-.37-.5-.37-.85,0-.16.05-.35.15-.55l4.27-8.9c.22-.46.4-.77.55-.92.22-.23.5-.34.85-.34.38,0,.69.11.93.33.25.22.37.5.37.85,0,.16-.05.35-.15.55l-4.27,8.9c-.22.46-.4.77-.55.92-.22.23-.5.34-.85.34m-11.23-6.59c.28,0,.51-.08.69-.24.18-.16.27-.38.27-.63s-.09-.47-.27-.63c-.18-.16-.41-.24-.69-.24h-1.73v1.75h1.73Zm-3.09,5.76c-.41,0-.74-.13-.98-.38-.25-.26-.37-.59-.37-1.01v-7.28c0-.42.12-.75.37-1.01.25-.26.58-.39.98-.39h2.91c1.17,0,2.13.32,2.86.96.73.64,1.1,1.46,1.1,2.48,0,1.19-.48,2.1-1.44,2.74l1.16,1.7c.24.35.36.7.36,1.06,0,.3-.13.57-.39.79-.27.22-.57.34-.91.34-.48,0-.84-.19-1.1-.58l-1.75-2.62h-1.46v1.8c0,.42-.12.75-.37,1.01-.25.26-.57.38-.98.38m-7.31-12c0-.33.12-.61.36-.84.24-.23.55-.34.93-.34s.71.12.96.34c.24.22.36.5.36.84s-.12.62-.36.83c-.25.23-.57.34-.96.34s-.69-.11-.93-.34c-.24-.21-.36-.49-.36-.83m.98,7.45l-1.18-3.18-1.18,3.18h2.36Zm-3.99-7.45c0-.33.12-.61.36-.84.24-.23.56-.34.95-.34s.69.12.94.34c.24.22.36.5.36.84s-.12.62-.36.83c-.24.23-.56.34-.94.34s-.71-.11-.95-.34c-.24-.21-.36-.49-.36-.83m-1.11,12.03c-.34,0-.64-.13-.89-.38-.25-.25-.38-.55-.38-.88,0-.27.07-.57.2-.91l2.41-6c.3-.75.64-1.28,1.02-1.61.4-.35.93-.53,1.57-.53s1.17.18,1.58.53c.38.33.72.86,1.02,1.61l2.41,6c.13.34.2.64.2.91,0,.34-.13.63-.38.88s-.55.38-.89.38c-.7,0-1.15-.29-1.37-.87l-.43-1.15h-4.27l-.43,1.15c-.22.58-.67.87-1.37.87m-4.63-.03c-.41,0-.73-.13-.98-.38-.25-.26-.37-.59-.37-1.01v-5.99h-1.73c-.4,0-.72-.12-.98-.37-.26-.25-.39-.57-.39-.97s.13-.72.39-.97c.25-.25.58-.37.98-.37h6.17c.4,0,.73.12.98.37.25.25.38.57.38.97s-.12.72-.38.97c-.26.25-.59.37-.98.37h-1.73v5.99c0,.42-.12.75-.37,1.01-.25.26-.58.38-.98.38m-6.81,0c-.41,0-.74-.13-.98-.38-.25-.26-.37-.59-.37-1.01v-7.45c0-.42.12-.75.37-1.01.25-.26.58-.39.98-.39s.74.13.98.39c.25.26.37.59.37,1.01v7.45c0,.42-.12.75-.37,1.01-.25.26-.58.38-.98.38m-10.82,0c-.41,0-.74-.13-.98-.38-.25-.26-.37-.59-.37-1.01v-7.33c0-.47.13-.84.38-1.11.25-.27.59-.41,1.03-.41.3,0,.56.07.78.22.22.15.49.43.8.85l3.21,4.27v-3.94c0-.42.12-.75.37-1.01.25-.26.57-.39.98-.39s.74.13.98.39c.25.26.37.59.37,1.01v7.32c0,.47-.12.84-.37,1.11-.25.27-.58.41-1,.41-.51,0-1.01-.32-1.51-.96l-3.32-4.23v3.8c0,.42-.12.75-.37,1.01-.25.26-.58.38-.98.38m-6.33-4.55l-1.17-3.18-1.18,3.18h2.36Zm-5.11,4.58c-.34,0-.64-.13-.89-.38-.25-.25-.38-.55-.38-.88,0-.27.07-.57.2-.91l2.4-6c.3-.75.64-1.28,1.02-1.61.4-.35.93-.53,1.57-.53s1.17.18,1.58.53c.38.33.72.86,1.02,1.61l2.41,6c.13.34.2.64.2.91,0,.34-.13.63-.38.88-.25.25-.55.38-.89.38-.7,0-1.15-.29-1.37-.87l-.43-1.15h-4.27l-.43,1.15c-.22.58-.67.87-1.37.87m-5.83,0c-1.36,0-2.54-.35-3.53-1.07-.53-.38-.8-.82-.8-1.32,0-.36.12-.66.36-.91.25-.25.55-.38.9-.38.28,0,.57.1.88.29.92.57,1.72.86,2.43.86s1.08-.19,1.08-.59c0-.27-.22-.45-.65-.54l-2.01-.41c-1.77-.36-2.65-1.33-2.65-2.91,0-1.01.36-1.82,1.09-2.43.73-.61,1.7-.92,2.92-.92s2.27.33,3.25,1c.51.35.77.8.77,1.35,0,.36-.1.66-.3.9-.22.25-.5.37-.86.37s-.76-.14-1.25-.43c-.77-.45-1.4-.67-1.92-.67-.55,0-.83.18-.83.55,0,.17.06.3.18.38.11.07.3.14.57.21l1.91.44c.82.19,1.44.48,1.85.86.51.47.76,1.13.76,1.98,0,1.04-.38,1.86-1.14,2.47-.76.61-1.76.91-3.02.91"/>
  </g>
  <g class="cls-12">
    <text class="cls-2" transform="translate(3.96 52.69)"><tspan class="cls-18" x="0" y="0">S</tspan><tspan class="cls-16" x="9.43" y="0">A</tspan><tspan class="cls-5" x="19.46" y="0">N</tspan><tspan class="cls-22" x="30.3" y="0">I</tspan><tspan class="cls-9" x="34.46" y="0">T</tspan><tspan class="cls-16" x="42.52" y="0">ÄR</tspan><tspan class="cls-24" x="62.39" y="0"> </tspan><tspan class="cls-10" x="67.15" y="0">/</tspan><tspan class="cls-6" x="76.18" y="0"> </tspan><tspan class="cls-5" x="79.52" y="0">H</tspan><tspan class="cls-6" x="90.31" y="0">E</tspan><tspan class="cls-20" x="99.47" y="0">I</tspan><tspan class="cls-11" x="103.7" y="0">Z</tspan><tspan class="cls-13" x="113" y="0">U</tspan><tspan class="cls-14" x="123.33" y="0">N</tspan><tspan class="cls-8" x="134.13" y="0">G</tspan><tspan class="cls-24" x="145.1" y="0"> </tspan><tspan class="cls-7" x="149.86" y="0">/</tspan><tspan class="cls-21" x="158.89" y="0"> </tspan><tspan class="cls-23" x="162.23" y="0">P</tspan><tspan class="cls-19" x="171.44" y="0">L</tspan><tspan class="cls-16" x="180.1" y="0">A</tspan><tspan class="cls-13" x="190.14" y="0">NU</tspan><tspan class="cls-4" x="211.34" y="0">N</tspan><tspan x="222.15" y="0">G</tspan></text>
  </g>
</svg>