<?xml version="1.0" encoding="utf-8"?>
<!-- Generator: Adobe Illustrator 27.3.1, SVG Export Plug-In . SVG Version: 6.00 Build 0)  -->
<svg version="1.1" id="Layer_1" xmlns="http://www.w3.org/2000/svg" xmlns:xlink="http://www.w3.org/1999/xlink" x="0px" y="0px"
	 viewBox="0 0 240.95 56.69" style="enable-background:new 0 0 240.95 56.69;" xml:space="preserve">
<style type="text/css">
	.st0{clip-path:url(#SVGID_00000000211406895843343760000009337551483016271238_);fill:#FFFFFF;}
	.st1{clip-path:url(#SVGID_00000000211406895843343760000009337551483016271238_);}
	.st2{fill:#0061AF;}
	.st3{clip-path:url(#SVGID_00000000211406895843343760000009337551483016271238_);fill:#0061AF;}
	.st4{clip-path:url(#SVGID_00000156557429297591482930000010257856318216784823_);}
	.st5{fill:#FFFFFF;}
	.st6{font-family:'GTMaru-Bold';}
	.st7{font-size:14.31px;}
	.st8{letter-spacing:-1;}
</style>
<g>
	<defs>
		<rect id="SVGID_1_" x="2.84" y="6.8" width="235.27" height="31.18"/>
	</defs>
	<clipPath id="SVGID_00000083778908243711609690000007793964568163585430_">
		<use xlink:href="#SVGID_1_"  style="overflow:visible;"/>
	</clipPath>
	<path style="clip-path:url(#SVGID_00000083778908243711609690000007793964568163585430_);fill:#FFFFFF;" d="M224.79,36.37
		c-4.48,0-8.09-1.35-10.82-4.06c-2.72-2.68-4.08-6.21-4.08-10.58c0-4.36,1.44-7.95,4.34-10.76c2.86-2.77,6.49-4.16,10.88-4.16
		c3.73,0,6.96,0.95,9.7,2.86c1.5,1.05,2.25,2.35,2.25,3.88c0,1.07-0.36,1.91-1.08,2.52c-0.64,0.55-1.43,0.83-2.35,0.83
		c-1.16,0-2.34-0.34-3.55-1.03c-1.72-0.96-3.48-1.44-5.28-1.44c-2.01,0-3.67,0.68-4.97,2.03c-1.29,1.37-1.93,3.09-1.93,5.18
		c0,2.06,0.64,3.75,1.93,5.06c1.31,1.35,3.06,2.03,5.24,2.03c3.01,0,4.67-0.95,4.99-2.86h-4.53c-1.05,0-1.94-0.34-2.68-1.02
		c-0.74-0.7-1.1-1.55-1.1-2.56c0-1.17,0.37-2.08,1.1-2.74c0.7-0.62,1.59-0.93,2.68-0.93h8.79c1.06,0,1.94,0.32,2.64,0.97
		c0.78,0.74,1.16,1.77,1.16,3.09c0,4.48-1.27,7.92-3.8,10.33C231.95,35.25,228.78,36.37,224.79,36.37"/>
	<path style="clip-path:url(#SVGID_00000083778908243711609690000007793964568163585430_);fill:#FFFFFF;" d="M197.62,23.22
		l-3.37-9.1l-3.39,9.1H197.62z M182.98,36.37c-0.99,0-1.84-0.36-2.56-1.08c-0.72-0.72-1.08-1.56-1.08-2.52
		c0-0.77,0.19-1.65,0.57-2.62l3.45-8.6l3.45-8.6c0.85-2.14,1.83-3.68,2.92-4.61c1.16-1.01,2.66-1.52,4.51-1.52s3.36,0.51,4.53,1.52
		c1.09,0.93,2.06,2.47,2.92,4.61l6.9,17.21c0.38,0.97,0.57,1.85,0.57,2.62c0,0.96-0.36,1.8-1.08,2.52
		c-0.72,0.72-1.58,1.08-2.56,1.08c-2,0-3.3-0.83-3.92-2.5l-1.22-3.31h-12.24l-1.22,3.31C186.28,35.53,184.97,36.37,182.98,36.37"/>
	<path style="clip-path:url(#SVGID_00000083778908243711609690000007793964568163585430_);fill:#FFFFFF;" d="M162.52,36.36
		c-1.17,0-2.12-0.37-2.83-1.11c-0.71-0.74-1.07-1.71-1.07-2.91v-7.1h-10.02v7.1c0,1.2-0.36,2.17-1.07,2.91
		c-0.71,0.74-1.66,1.11-2.83,1.11c-1.18,0-2.12-0.37-2.83-1.11c-0.71-0.74-1.07-1.71-1.07-2.91V10.91c0-1.2,0.36-2.17,1.07-2.91
		c0.71-0.74,1.65-1.11,2.83-1.11c1.17,0,2.12,0.37,2.83,1.11c0.71,0.74,1.07,1.71,1.07,2.91v6.98h10.02v-6.98
		c0-1.2,0.36-2.17,1.07-2.91c0.71-0.74,1.66-1.11,2.83-1.11c1.17,0,2.12,0.37,2.83,1.11c0.71,0.74,1.07,1.71,1.07,2.91v21.44
		c0,1.2-0.36,2.17-1.07,2.91C164.64,35.99,163.7,36.36,162.52,36.36"/>
	<path style="clip-path:url(#SVGID_00000083778908243711609690000007793964568163585430_);fill:#FFFFFF;" d="M115.76,36.27
		c-1.12,0-2.02-0.35-2.71-1.04c-0.71-0.69-1.06-1.58-1.06-2.67c0-1.16,0.51-2.31,1.53-3.45l13.06-14.81h-10.93
		c-1.12,0-2.03-0.34-2.75-1.02c-0.72-0.69-1.08-1.58-1.08-2.65c0-1.09,0.36-1.99,1.08-2.69c0.72-0.69,1.64-1.04,2.75-1.04h18.46
		c1.09,0,1.99,0.35,2.69,1.04c0.72,0.71,1.08,1.6,1.08,2.69c0,1.14-0.52,2.32-1.57,3.53l-12.79,14.71h10.97
		c1.12,0,2.03,0.35,2.75,1.04c0.72,0.71,1.08,1.6,1.08,2.69c0,1.07-0.36,1.96-1.08,2.65c-0.72,0.68-1.64,1.02-2.75,1.02H115.76z"/>
	<path style="clip-path:url(#SVGID_00000083778908243711609690000007793964568163585430_);fill:#FFFFFF;" d="M91.39,36.27
		c-1.23,0-2.2-0.38-2.92-1.14c-0.74-0.76-1.1-1.76-1.1-3v-21.1c0-1.24,0.37-2.24,1.1-3c0.72-0.76,1.69-1.14,2.92-1.14h14.48
		c1.2,0,2.17,0.37,2.92,1.1c0.75,0.75,1.12,1.71,1.12,2.88c0,1.17-0.38,2.13-1.12,2.88c-0.75,0.73-1.72,1.1-2.92,1.1H95.41v2.96
		h9.62c1.1,0,2.01,0.35,2.74,1.04c0.71,0.71,1.06,1.6,1.06,2.67c0,1.07-0.36,1.96-1.08,2.65c-0.72,0.68-1.63,1.02-2.72,1.02h-9.62
		v3.12h10.5c1.2,0,2.17,0.37,2.92,1.1c0.76,0.75,1.14,1.71,1.14,2.88c0,1.17-0.38,2.13-1.14,2.88c-0.75,0.74-1.72,1.1-2.92,1.1
		H91.39z"/>
	<path style="clip-path:url(#SVGID_00000083778908243711609690000007793964568163585430_);fill:#FFFFFF;" d="M72.05,36.37
		c-3.8,0-6.83-1.08-9.09-3.23c-2.29-2.16-3.43-5.05-3.43-8.67V10.9c0-1.2,0.36-2.16,1.08-2.9c0.74-0.74,1.69-1.1,2.86-1.1
		c1.16,0,2.08,0.37,2.78,1.1c0.7,0.73,1.04,1.7,1.04,2.9v12.85c0,1.39,0.45,2.54,1.34,3.43c0.88,0.89,2.02,1.34,3.41,1.34
		c1.39,0,2.54-0.45,3.43-1.34c0.88-0.88,1.32-2.02,1.32-3.43V10.9c0-1.2,0.35-2.16,1.05-2.9c0.71-0.74,1.64-1.1,2.8-1.1
		c1.17,0,2.12,0.37,2.84,1.1c0.72,0.73,1.08,1.7,1.08,2.9v13.56c0,3.63-1.14,6.52-3.41,8.67S75.84,36.37,72.05,36.37"/>
	<path style="clip-path:url(#SVGID_00000083778908243711609690000007793964568163585430_);fill:#FFFFFF;" d="M46.13,19.5
		c0.82,0,1.49-0.24,2.01-0.7c0.54-0.48,0.81-1.1,0.81-1.85s-0.27-1.37-0.81-1.85c-0.52-0.47-1.19-0.7-2.01-0.7h-5.07v5.11H46.13z
		 M37.09,36.36c-1.19,0-2.15-0.38-2.88-1.13c-0.72-0.75-1.09-1.74-1.09-2.96v-21.3c0-1.22,0.36-2.21,1.09-2.96
		c0.72-0.75,1.68-1.13,2.88-1.13h8.53c3.44,0,6.23,0.93,8.37,2.8c2.15,1.86,3.22,4.28,3.22,7.26c0,3.47-1.4,6.15-4.21,8.03l3.4,4.99
		c0.71,1.03,1.07,2.06,1.07,3.1c0,0.88-0.38,1.66-1.15,2.31c-0.78,0.66-1.67,0.99-2.68,0.99c-1.4,0-2.47-0.56-3.22-1.69l-5.11-7.66
		h-4.27v5.27c0,1.22-0.36,2.21-1.09,2.96C39.25,35.98,38.29,36.36,37.09,36.36"/>
	<path style="clip-path:url(#SVGID_00000083778908243711609690000007793964568163585430_);fill:#FFFFFF;" d="M17.74,36.16
		c-4.47,0-8.07-1.35-10.79-4.05c-2.71-2.67-4.07-6.19-4.07-10.55c0-4.35,1.44-7.92,4.32-10.73c2.86-2.76,6.47-4.15,10.85-4.15
		c3.72,0,6.95,0.95,9.67,2.85c1.5,1.05,2.24,2.34,2.24,3.87c0,1.06-0.36,1.9-1.08,2.51c-0.64,0.55-1.42,0.82-2.34,0.82
		c-1.15,0-2.33-0.34-3.54-1.02c-1.72-0.96-3.47-1.43-5.27-1.43c-2.01,0-3.66,0.67-4.95,2.02c-1.28,1.36-1.93,3.08-1.93,5.17
		c0,2.06,0.64,3.74,1.93,5.05c1.31,1.35,3.05,2.02,5.23,2.02c3,0,4.66-0.95,4.97-2.85h-4.52c-1.05,0-1.94-0.34-2.67-1.02
		c-0.73-0.69-1.1-1.54-1.1-2.55c0-1.16,0.37-2.08,1.1-2.73c0.69-0.62,1.59-0.92,2.67-0.92h8.77c1.06,0,1.94,0.32,2.63,0.96
		c0.77,0.73,1.16,1.76,1.16,3.08c0,4.47-1.26,7.9-3.79,10.29C24.89,35.04,21.72,36.16,17.74,36.16"/>
	<g style="clip-path:url(#SVGID_00000083778908243711609690000007793964568163585430_);">
		<path class="st2" d="M136.31,31.53c-0.27,0-0.48,0.22-0.48,0.48c0,0.57-0.17,0.98-0.46,1.29c-0.31,0.31-0.71,0.48-1.24,0.48
			h-19.13c-0.27,0-0.48,0.22-0.48,0.48c0,0.27,0.22,0.48,0.48,0.48h19.13c0.76,0,1.42-0.25,1.93-0.76c0,0,0,0,0,0l-0.35-0.34v0
			l0.35,0.34c0.5-0.52,0.74-1.19,0.74-1.96C136.79,31.74,136.58,31.53,136.31,31.53"/>
		<path class="st2" d="M116.1,9.48h10.1h8.69c0.27,0,0.48-0.22,0.48-0.48s-0.21-0.48-0.48-0.48h-8.69h-10.1
			c-0.76,0-1.42,0.25-1.93,0.76l0,0l0.35,0.33l0,0l-0.35-0.33c-0.5,0.52-0.74,1.19-0.74,1.96c0,0.27,0.22,0.48,0.48,0.48
			c0.27,0,0.48-0.22,0.48-0.48c0-0.57,0.16-0.98,0.46-1.29C115.16,9.64,115.56,9.48,116.1,9.48"/>
		<path class="st2" d="M145.07,9.48c0.27,0,0.48-0.22,0.48-0.48s-0.22-0.48-0.48-0.48c-0.76,0-1.42,0.25-1.93,0.76l0,0l0.35,0.33
			l0,0l-0.35-0.33c-0.5,0.52-0.74,1.19-0.74,1.96c0,0.27,0.22,0.48,0.48,0.48c0.27,0,0.48-0.22,0.48-0.48
			c0-0.57,0.16-0.98,0.46-1.29C144.13,9.64,144.53,9.48,145.07,9.48"/>
		<path class="st2" d="M162.92,9.48c0.27,0,0.48-0.22,0.48-0.48s-0.22-0.48-0.48-0.48c-0.76,0-1.42,0.25-1.93,0.76c0,0,0,0,0,0
			l0.35,0.33l0,0l-0.35-0.33c-0.5,0.52-0.74,1.19-0.74,1.96c0,0.27,0.22,0.48,0.48,0.48c0.27,0,0.48-0.22,0.48-0.48
			c0-0.57,0.16-0.98,0.46-1.29C161.98,9.64,162.38,9.48,162.92,9.48"/>
		<path class="st2" d="M164.35,31.53c-0.27,0-0.48,0.22-0.48,0.48c0,0.57-0.17,0.98-0.46,1.29c-0.31,0.31-0.71,0.48-1.24,0.48
			c-0.27,0-0.48,0.22-0.48,0.48c0,0.27,0.22,0.48,0.48,0.48c0.76,0,1.42-0.25,1.93-0.76c0,0,0,0,0,0l-0.35-0.34v0l0.35,0.34
			c0.5-0.52,0.74-1.19,0.74-1.96C164.83,31.74,164.61,31.53,164.35,31.53"/>
		<path class="st2" d="M146.5,31.53c-0.27,0-0.48,0.22-0.48,0.48c0,0.57-0.17,0.98-0.46,1.29c-0.31,0.31-0.71,0.48-1.24,0.48
			c-0.27,0-0.48,0.22-0.48,0.48c0,0.27,0.22,0.48,0.48,0.48c0.76,0,1.42-0.25,1.93-0.76c0,0,0,0,0,0l-0.35-0.34v0l0.35,0.34
			c0.5-0.52,0.74-1.19,0.74-1.96C146.98,31.74,146.77,31.53,146.5,31.53"/>
		<path class="st2" d="M18.62,9.19c0.27,0,0.48-0.22,0.48-0.48s-0.22-0.48-0.48-0.48c-4.04,0-7.41,1.28-10.07,3.86l0,0l0.33,0.34
			l0,0l-0.33-0.34c-2.69,2.61-4.03,5.95-4.03,9.97c0,0.27,0.22,0.48,0.48,0.48s0.48-0.22,0.48-0.48c0-3.78,1.25-6.86,3.73-9.28
			C11.68,10.39,14.8,9.19,18.62,9.19"/>
		<path class="st2" d="M225.74,9.39c0.27,0,0.48-0.22,0.48-0.48s-0.22-0.48-0.48-0.48c-4.04,0-7.41,1.28-10.07,3.86l0,0l0.33,0.34h0
			l-0.33-0.34c-2.69,2.61-4.02,5.95-4.02,9.97c0,0.27,0.22,0.48,0.48,0.48s0.48-0.22,0.48-0.48c0-3.78,1.25-6.86,3.73-9.28
			C218.8,10.59,221.92,9.39,225.74,9.39"/>
		<path class="st2" d="M91.83,9.39h14.79c0.27,0,0.48-0.22,0.48-0.48s-0.22-0.48-0.48-0.48H91.83c-0.83,0-1.55,0.27-2.1,0.83
			c0,0,0,0,0,0l0.35,0.34l0,0l-0.35-0.34c-0.55,0.56-0.8,1.29-0.8,2.13c0,0.27,0.22,0.48,0.48,0.48s0.48-0.22,0.48-0.48
			c0-0.64,0.19-1.11,0.53-1.46C90.77,9.58,91.22,9.39,91.83,9.39"/>
		<path class="st2" d="M78.81,11.87c0.27,0,0.48-0.22,0.48-0.48c0-0.64,0.19-1.11,0.53-1.46c0.35-0.35,0.81-0.54,1.41-0.54
			c0.27,0,0.48-0.22,0.48-0.48c0-0.27-0.22-0.48-0.48-0.48c-0.83,0-1.55,0.27-2.1,0.83c0,0,0,0,0,0l0.34,0.34l0,0l-0.35-0.34
			c-0.55,0.56-0.8,1.29-0.8,2.13C78.32,11.65,78.54,11.87,78.81,11.87"/>
		<path class="st2" d="M63.97,8.42c-0.83,0-1.55,0.27-2.1,0.83c0,0,0,0,0,0l0.34,0.33l0,0l-0.35-0.34c-0.55,0.56-0.8,1.29-0.8,2.13
			c0,0.27,0.22,0.48,0.48,0.48c0.27,0,0.48-0.22,0.48-0.48c0-0.64,0.19-1.11,0.53-1.46c0.35-0.35,0.81-0.54,1.41-0.54
			c0.27,0,0.48-0.22,0.48-0.48S64.24,8.42,63.97,8.42"/>
		<path class="st2" d="M46.83,8.42h-9.14c-0.83,0-1.55,0.27-2.1,0.83c0,0,0,0,0,0l0.35,0.33l0,0l-0.35-0.34
			c-0.55,0.56-0.8,1.29-0.8,2.13c0,0.27,0.22,0.48,0.48,0.48c0.27,0,0.48-0.22,0.48-0.48c0-0.64,0.19-1.11,0.53-1.46
			c0.35-0.35,0.81-0.54,1.41-0.54h9.14c0.27,0,0.48-0.22,0.48-0.48S47.09,8.42,46.83,8.42"/>
		<path class="st2" d="M28.86,23.14c-0.27,0-0.48,0.22-0.48,0.48c0,3.07-0.92,5.51-2.71,7.36c-1.83,1.85-4.21,2.79-7.17,2.79
			c-0.27,0-0.48,0.22-0.48,0.48c0,0.27,0.22,0.48,0.48,0.48c3.19,0,5.82-1.02,7.86-3.07l-0.34-0.34l0.34,0.34c0,0,0,0,0,0
			c2-2.06,2.99-4.75,2.99-8.03C29.35,23.36,29.13,23.14,28.86,23.14"/>
		<path class="st2" d="M82.57,23.14c-0.27,0-0.48,0.22-0.48,0.48c0,3.07-0.92,5.51-2.71,7.36c-1.83,1.85-4.21,2.79-7.17,2.79
			c-0.27,0-0.48,0.22-0.48,0.48c0,0.27,0.22,0.48,0.48,0.48c3.19,0,5.82-1.02,7.86-3.07l-0.34-0.34l0.34,0.34c0,0,0,0,0,0
			c2-2.06,2.99-4.75,2.99-8.03C83.05,23.36,82.84,23.14,82.57,23.14"/>
		<path class="st2" d="M235.99,23.14c-0.27,0-0.48,0.22-0.48,0.48c0,3.07-0.91,5.51-2.71,7.36c-1.83,1.85-4.21,2.79-7.17,2.79
			c-0.27,0-0.48,0.22-0.48,0.48c0,0.27,0.22,0.48,0.48,0.48c3.19,0,5.82-1.02,7.86-3.07l-0.34-0.34l0.34,0.34c0,0,0,0,0,0
			c2-2.06,2.99-4.75,2.99-8.03C236.47,23.36,236.25,23.14,235.99,23.14"/>
		<path class="st2" d="M107.86,31.53c-0.27,0-0.48,0.22-0.48,0.48c0,0.57-0.17,0.98-0.47,1.29c-0.31,0.31-0.71,0.48-1.24,0.48H90.52
			c-0.27,0-0.48,0.22-0.48,0.48c0,0.27,0.22,0.48,0.48,0.48h15.16c0.76,0,1.42-0.25,1.93-0.76c0,0,0,0,0,0l-0.35-0.34v0l0.35,0.34
			c0.5-0.52,0.74-1.19,0.74-1.96C108.35,31.74,108.13,31.53,107.86,31.53"/>
		<path class="st2" d="M27.21,20.6c0.27,0,0.48-0.22,0.48-0.48s-0.22-0.48-0.48-0.48H18.3c-0.77,0-1.43,0.25-1.94,0.77
			c-0.5,0.52-0.74,1.19-0.74,1.96c0,0.27,0.22,0.48,0.48,0.48c0.27,0,0.48-0.22,0.48-0.48c0-0.57,0.17-0.98,0.47-1.29
			c0.3-0.31,0.7-0.47,1.25-0.47H27.21z"/>
		<path class="st2" d="M55.5,31.53c-0.27,0-0.48,0.22-0.48,0.48c0,0.39-0.04,0.63-0.11,0.8c-0.06,0.17-0.16,0.31-0.33,0.49
			c-0.32,0.32-0.85,0.54-1.24,0.54c-0.27,0-0.48,0.22-0.48,0.48c0,0.27,0.22,0.48,0.48,0.48c0.66,0,1.43-0.32,1.93-0.82c0,0,0,0,0,0
			l-0.34-0.34l0,0l0.35,0.34c0.23-0.24,0.42-0.49,0.54-0.83c0.12-0.32,0.17-0.69,0.17-1.14C55.98,31.74,55.77,31.53,55.5,31.53"/>
		<path class="st2" d="M39,31.53c-0.27,0-0.48,0.22-0.48,0.48c0,0.39-0.04,0.63-0.11,0.8c-0.06,0.17-0.16,0.31-0.33,0.49
			c-0.32,0.32-0.85,0.54-1.24,0.54c-0.27,0-0.48,0.22-0.48,0.48c0,0.27,0.22,0.48,0.48,0.48c0.66,0,1.43-0.32,1.93-0.82c0,0,0,0,0,0
			l-0.34-0.34l0,0l0.35,0.34c0.23-0.24,0.42-0.49,0.54-0.83c0.12-0.32,0.17-0.69,0.17-1.14C39.48,31.74,39.26,31.53,39,31.53"/>
		<path class="st2" d="M234.34,20.6c0.27,0,0.48-0.22,0.48-0.48s-0.22-0.48-0.48-0.48h-8.92c-0.77,0-1.43,0.25-1.94,0.77
			c-0.5,0.52-0.74,1.19-0.74,1.96c0,0.27,0.21,0.48,0.48,0.48c0.27,0,0.48-0.22,0.48-0.48c0-0.57,0.17-0.98,0.47-1.29
			c0.3-0.31,0.7-0.47,1.25-0.47H234.34z"/>
		<path class="st2" d="M194.68,8.42c-1.59,0-2.93,0.44-3.97,1.35c0,0,0,0,0,0c0,0,0,0,0,0c-0.97,0.83-1.79,2.15-2.49,3.92
			l-2.79,6.97c-0.1,0.25,0.02,0.53,0.27,0.63c0.25,0.1,0.53-0.02,0.63-0.27l2.79-6.97c0.68-1.7,1.43-2.87,2.23-3.55c0,0,0,0,0,0
			c0.83-0.73,1.93-1.11,3.34-1.11c0.27,0,0.48-0.22,0.48-0.48S194.95,8.42,194.68,8.42"/>
		<path class="st2" d="M206.42,30.12c-0.22,0.15-0.27,0.45-0.12,0.67c0.32,0.46,0.41,0.92,0.41,1.3c0,0.45-0.15,0.83-0.48,1.18
			c-0.33,0.34-0.69,0.5-1.11,0.5c-0.27,0-0.48,0.22-0.48,0.48c0,0.27,0.22,0.48,0.48,0.48c0.7,0,1.31-0.28,1.81-0.8
			c0.49-0.52,0.75-1.14,0.75-1.84c0-0.55-0.14-1.2-0.59-1.85C206.94,30.03,206.64,29.97,206.42,30.12"/>
		<path class="st2" d="M185.39,31.78c-0.26-0.07-0.52,0.08-0.59,0.34c-0.17,0.61-0.42,1.02-0.72,1.27
			c-0.29,0.25-0.68,0.39-1.18,0.39c-0.27,0-0.48,0.22-0.48,0.48c0,0.27,0.22,0.48,0.48,0.48c0.7,0,1.31-0.2,1.81-0.62
			c0.49-0.42,0.82-1.02,1.02-1.75C185.79,32.11,185.64,31.85,185.39,31.78"/>
	</g>
	<path style="clip-path:url(#SVGID_00000083778908243711609690000007793964568163585430_);fill:#0061AF;" d="M233.31,53.39
		c-1.56,0-2.82-0.47-3.77-1.42c-0.95-0.94-1.42-2.17-1.42-3.69c0-1.52,0.5-2.77,1.51-3.75c1-0.97,2.26-1.45,3.79-1.45
		c1.3,0,2.43,0.33,3.38,1c0.52,0.37,0.78,0.82,0.78,1.35c0,0.37-0.13,0.66-0.38,0.88c-0.22,0.19-0.5,0.29-0.82,0.29
		c-0.4,0-0.82-0.12-1.24-0.36c-0.6-0.33-1.21-0.5-1.84-0.5c-0.7,0-1.28,0.24-1.73,0.71c-0.45,0.48-0.67,1.08-0.67,1.81
		c0,0.72,0.22,1.31,0.67,1.77c0.46,0.47,1.07,0.71,1.83,0.71c1.05,0,1.63-0.33,1.74-1h-1.58c-0.37,0-0.68-0.12-0.94-0.36
		c-0.26-0.24-0.38-0.54-0.38-0.89c0-0.41,0.13-0.73,0.38-0.95c0.24-0.22,0.56-0.32,0.94-0.32h3.07c0.37,0,0.68,0.11,0.92,0.34
		c0.27,0.26,0.4,0.62,0.4,1.08c0,1.56-0.44,2.76-1.33,3.6C235.81,53,234.71,53.39,233.31,53.39 M219.14,53.35
		c-0.41,0-0.74-0.13-0.98-0.38c-0.25-0.26-0.37-0.59-0.37-1.01v-7.33c0-0.47,0.13-0.84,0.38-1.11c0.25-0.27,0.59-0.41,1.03-0.41
		c0.3,0,0.56,0.07,0.78,0.22c0.22,0.15,0.49,0.43,0.8,0.85l3.21,4.27v-3.94c0-0.42,0.12-0.75,0.37-1.01
		c0.25-0.26,0.57-0.38,0.98-0.38c0.41,0,0.74,0.13,0.98,0.38c0.25,0.26,0.37,0.59,0.37,1.01v7.32c0,0.47-0.12,0.84-0.37,1.11
		c-0.25,0.27-0.58,0.41-1,0.41c-0.51,0-1.01-0.32-1.51-0.96l-3.32-4.23v3.8c0,0.42-0.12,0.75-0.37,1.01
		C219.87,53.22,219.54,53.35,219.14,53.35 M211.68,53.39c-1.32,0-2.38-0.38-3.17-1.13c-0.8-0.75-1.2-1.76-1.2-3.03v-4.73
		c0-0.42,0.13-0.75,0.38-1.01c0.26-0.26,0.59-0.38,1-0.38c0.4,0,0.73,0.13,0.97,0.38c0.24,0.26,0.36,0.59,0.36,1.01v4.48
		c0,0.49,0.16,0.88,0.47,1.2c0.31,0.31,0.7,0.47,1.19,0.47c0.49,0,0.88-0.15,1.2-0.47c0.31-0.31,0.46-0.71,0.46-1.2v-4.48
		c0-0.42,0.12-0.75,0.36-1.01c0.25-0.26,0.57-0.38,0.98-0.38c0.41,0,0.74,0.13,0.99,0.38s0.38,0.59,0.38,1.01v4.73
		c0,1.26-0.4,2.27-1.19,3.03C214.06,53.01,213.01,53.39,211.68,53.39 M198.03,53.35c-0.41,0-0.74-0.13-0.98-0.38
		c-0.25-0.26-0.37-0.59-0.37-1.01v-7.33c0-0.47,0.13-0.84,0.38-1.11c0.25-0.27,0.59-0.41,1.03-0.41c0.3,0,0.56,0.07,0.78,0.22
		c0.22,0.15,0.49,0.43,0.8,0.85l3.21,4.27v-3.94c0-0.42,0.12-0.75,0.37-1.01c0.25-0.26,0.57-0.38,0.98-0.38
		c0.41,0,0.74,0.13,0.98,0.38c0.25,0.26,0.37,0.59,0.37,1.01v7.32c0,0.47-0.12,0.84-0.37,1.11c-0.25,0.27-0.58,0.41-1,0.41
		c-0.51,0-1.01-0.32-1.51-0.96l-3.32-4.23v3.8c0,0.42-0.12,0.75-0.37,1.01C198.76,53.22,198.44,53.35,198.03,53.35 M191.7,48.8
		l-1.18-3.17l-1.18,3.17H191.7z M186.59,53.39c-0.34,0-0.64-0.13-0.89-0.38c-0.25-0.25-0.38-0.54-0.38-0.88
		c0-0.27,0.07-0.58,0.2-0.91l2.4-6c0.3-0.75,0.64-1.28,1.02-1.61c0.4-0.35,0.93-0.53,1.57-0.53s1.17,0.18,1.58,0.53
		c0.38,0.33,0.72,0.86,1.02,1.61l2.41,6c0.13,0.34,0.2,0.64,0.2,0.91c0,0.33-0.13,0.63-0.38,0.88c-0.25,0.25-0.55,0.38-0.89,0.38
		c-0.7,0-1.15-0.29-1.37-0.87l-0.43-1.15h-4.27l-0.43,1.15C187.74,53.1,187.29,53.39,186.59,53.39 M179.13,53.18
		c-0.41,0-0.74-0.13-0.98-0.38c-0.25-0.26-0.37-0.59-0.37-1.01v-7.28c0-0.42,0.12-0.75,0.37-1.01c0.25-0.26,0.57-0.38,0.98-0.38
		c0.41,0,0.74,0.13,0.98,0.38c0.25,0.26,0.37,0.59,0.37,1.01v5.99h3.27c0.4,0,0.73,0.12,0.98,0.37c0.26,0.25,0.39,0.58,0.39,0.97
		c0,0.39-0.13,0.72-0.39,0.97c-0.25,0.25-0.58,0.37-0.98,0.37H179.13z M172.82,47.65c0.29,0,0.52-0.08,0.7-0.25
		c0.18-0.17,0.27-0.39,0.27-0.65c0-0.26-0.09-0.48-0.27-0.65c-0.18-0.17-0.41-0.25-0.7-0.25h-1.75v1.8H172.82z M169.72,53.35
		c-0.41,0-0.74-0.13-0.98-0.38c-0.25-0.26-0.37-0.59-0.37-1.01v-7.28c0-0.42,0.12-0.75,0.37-1.01c0.25-0.26,0.57-0.39,0.98-0.39
		h2.86c1.21,0,2.19,0.31,2.93,0.94c0.74,0.63,1.11,1.47,1.11,2.53c0,1.05-0.37,1.9-1.11,2.53c-0.74,0.62-1.71,0.94-2.93,0.94h-1.51
		v1.74c0,0.42-0.12,0.75-0.37,1.01C170.45,53.22,170.12,53.35,169.72,53.35 M156.32,54.18c-0.38,0-0.69-0.11-0.93-0.33
		c-0.25-0.22-0.37-0.5-0.37-0.85c0-0.17,0.05-0.35,0.15-0.55l4.27-8.9c0.22-0.46,0.4-0.77,0.55-0.92c0.21-0.23,0.5-0.34,0.85-0.34
		c0.38,0,0.69,0.11,0.93,0.33c0.25,0.22,0.37,0.5,0.37,0.85c0,0.17-0.05,0.35-0.15,0.55l-4.27,8.9c-0.22,0.46-0.4,0.77-0.55,0.92
		C156.96,54.06,156.68,54.18,156.32,54.18 M144.46,53.39c-1.56,0-2.82-0.47-3.77-1.42c-0.95-0.94-1.42-2.17-1.42-3.69
		c0-1.52,0.5-2.77,1.51-3.75c1-0.97,2.26-1.45,3.79-1.45c1.3,0,2.43,0.33,3.38,1c0.52,0.37,0.78,0.82,0.78,1.35
		c0,0.37-0.13,0.66-0.38,0.88c-0.22,0.19-0.5,0.29-0.82,0.29c-0.4,0-0.82-0.12-1.24-0.36c-0.6-0.33-1.21-0.5-1.84-0.5
		c-0.7,0-1.28,0.24-1.73,0.71c-0.45,0.48-0.67,1.08-0.67,1.81c0,0.72,0.22,1.31,0.67,1.77c0.46,0.47,1.07,0.71,1.83,0.71
		c1.05,0,1.63-0.33,1.74-1h-1.58c-0.37,0-0.68-0.12-0.93-0.36c-0.26-0.24-0.38-0.54-0.38-0.89c0-0.41,0.13-0.73,0.38-0.95
		c0.24-0.22,0.56-0.32,0.93-0.32h3.07c0.37,0,0.68,0.11,0.92,0.34c0.27,0.26,0.41,0.62,0.41,1.08c0,1.56-0.44,2.76-1.33,3.6
		C146.96,53,145.86,53.39,144.46,53.39 M130.29,53.35c-0.41,0-0.74-0.13-0.98-0.38c-0.25-0.26-0.37-0.59-0.37-1.01v-7.33
		c0-0.47,0.13-0.84,0.38-1.11c0.25-0.27,0.59-0.41,1.03-0.41c0.3,0,0.56,0.07,0.78,0.22c0.22,0.15,0.49,0.43,0.8,0.85l3.21,4.27
		v-3.94c0-0.42,0.12-0.75,0.37-1.01c0.25-0.26,0.57-0.38,0.98-0.38c0.41,0,0.74,0.13,0.98,0.38c0.25,0.26,0.37,0.59,0.37,1.01v7.32
		c0,0.47-0.12,0.84-0.37,1.11c-0.25,0.27-0.58,0.41-1,0.41c-0.51,0-1.01-0.32-1.51-0.96l-3.32-4.23v3.8c0,0.42-0.12,0.75-0.37,1.01
		C131.02,53.22,130.69,53.35,130.29,53.35 M122.83,53.39c-1.32,0-2.38-0.38-3.17-1.13c-0.8-0.75-1.2-1.76-1.2-3.03v-4.73
		c0-0.42,0.13-0.75,0.38-1.01c0.26-0.26,0.59-0.38,1-0.38c0.4,0,0.73,0.13,0.97,0.38c0.24,0.26,0.36,0.59,0.36,1.01v4.48
		c0,0.49,0.16,0.88,0.47,1.2c0.31,0.31,0.7,0.47,1.19,0.47s0.88-0.15,1.2-0.47c0.31-0.31,0.46-0.71,0.46-1.2v-4.48
		c0-0.42,0.12-0.75,0.37-1.01c0.25-0.26,0.57-0.38,0.98-0.38c0.41,0,0.74,0.13,0.99,0.38s0.38,0.59,0.38,1.01v4.73
		c0,1.26-0.4,2.27-1.19,3.03C125.21,53.01,124.16,53.39,122.83,53.39 M109.78,53.18c-0.38,0-0.68-0.12-0.91-0.35
		c-0.24-0.23-0.36-0.53-0.36-0.9c0-0.39,0.17-0.78,0.52-1.16l4.4-4.99h-3.68c-0.38,0-0.68-0.11-0.93-0.34
		c-0.24-0.23-0.37-0.53-0.37-0.89c0-0.37,0.12-0.67,0.37-0.91c0.24-0.23,0.55-0.35,0.93-0.35h6.22c0.37,0,0.67,0.12,0.91,0.35
		c0.24,0.24,0.36,0.54,0.36,0.91c0,0.38-0.18,0.78-0.53,1.19l-4.31,4.96h3.7c0.38,0,0.68,0.12,0.93,0.35
		c0.24,0.24,0.36,0.54,0.36,0.91c0,0.36-0.12,0.66-0.36,0.89c-0.24,0.23-0.55,0.34-0.93,0.34H109.78z M105.84,53.35
		c-0.41,0-0.74-0.13-0.98-0.38c-0.25-0.26-0.37-0.59-0.37-1.01v-7.45c0-0.42,0.12-0.75,0.37-1.01c0.25-0.26,0.58-0.38,0.98-0.38
		c0.41,0,0.74,0.13,0.98,0.38c0.25,0.26,0.37,0.59,0.37,1.01v7.45c0,0.42-0.12,0.75-0.37,1.01
		C106.57,53.22,106.25,53.35,105.84,53.35 M96.63,53.18c-0.41,0-0.74-0.13-0.98-0.38c-0.25-0.26-0.37-0.59-0.37-1.01v-7.11
		c0-0.42,0.12-0.75,0.37-1.01c0.24-0.26,0.57-0.39,0.98-0.39h4.87c0.4,0,0.73,0.12,0.98,0.37c0.25,0.25,0.38,0.57,0.38,0.97
		s-0.13,0.72-0.38,0.97c-0.25,0.25-0.58,0.37-0.98,0.37h-3.52v1h3.24c0.37,0,0.68,0.12,0.92,0.35c0.24,0.24,0.36,0.54,0.36,0.9
		s-0.12,0.66-0.36,0.89c-0.24,0.23-0.55,0.34-0.91,0.34h-3.24v1.05h3.53c0.4,0,0.73,0.12,0.98,0.37c0.26,0.25,0.39,0.58,0.39,0.97
		c0,0.39-0.13,0.72-0.39,0.97c-0.25,0.25-0.58,0.37-0.98,0.37H96.63z M92.01,53.35c-0.41,0-0.74-0.13-0.98-0.38
		c-0.25-0.26-0.37-0.59-0.37-1.01v-2.47h-3.48v2.47c0,0.42-0.12,0.75-0.37,1.01c-0.25,0.26-0.58,0.38-0.98,0.38
		c-0.41,0-0.74-0.13-0.98-0.38c-0.25-0.26-0.37-0.59-0.37-1.01v-7.45c0-0.42,0.12-0.75,0.37-1.01c0.25-0.26,0.57-0.38,0.98-0.38
		c0.41,0,0.74,0.13,0.98,0.38c0.25,0.26,0.37,0.59,0.37,1.01v2.43h3.48v-2.43c0-0.42,0.12-0.75,0.37-1.01
		c0.25-0.26,0.58-0.38,0.98-0.38c0.41,0,0.74,0.13,0.98,0.38c0.25,0.26,0.37,0.59,0.37,1.01v7.45c0,0.42-0.12,0.75-0.37,1.01
		C92.75,53.22,92.42,53.35,92.01,53.35 M72.44,54.18c-0.38,0-0.69-0.11-0.94-0.33c-0.25-0.22-0.37-0.5-0.37-0.85
		c0-0.17,0.05-0.35,0.15-0.55l4.27-8.9c0.22-0.46,0.4-0.77,0.55-0.92c0.22-0.23,0.5-0.34,0.85-0.34c0.38,0,0.69,0.11,0.93,0.33
		c0.25,0.22,0.37,0.5,0.37,0.85c0,0.17-0.05,0.35-0.15,0.55l-4.27,8.9c-0.22,0.46-0.4,0.77-0.55,0.92
		C73.07,54.06,72.79,54.18,72.44,54.18 M61.21,47.59c0.28,0,0.51-0.08,0.69-0.24c0.18-0.17,0.27-0.38,0.27-0.63
		c0-0.26-0.09-0.47-0.27-0.63c-0.18-0.16-0.41-0.24-0.69-0.24h-1.73v1.75H61.21z M58.12,53.35c-0.41,0-0.74-0.13-0.98-0.38
		c-0.25-0.26-0.37-0.59-0.37-1.01v-7.28c0-0.42,0.12-0.75,0.37-1.01c0.25-0.26,0.58-0.39,0.98-0.39h2.91c1.17,0,2.13,0.32,2.86,0.96
		c0.73,0.64,1.1,1.46,1.1,2.48c0,1.19-0.48,2.1-1.44,2.74l1.16,1.7c0.24,0.35,0.36,0.71,0.36,1.06c0,0.3-0.13,0.56-0.39,0.79
		c-0.27,0.22-0.57,0.34-0.91,0.34c-0.48,0-0.84-0.19-1.1-0.58l-1.75-2.62h-1.46v1.8c0,0.42-0.12,0.75-0.37,1.01
		C58.86,53.22,58.53,53.35,58.12,53.35 M50.81,41.35c0-0.33,0.12-0.61,0.36-0.84c0.24-0.23,0.55-0.34,0.93-0.34
		c0.39,0,0.71,0.11,0.96,0.34c0.24,0.22,0.36,0.5,0.36,0.84c0,0.34-0.12,0.62-0.36,0.83c-0.25,0.22-0.57,0.34-0.96,0.34
		c-0.38,0-0.69-0.11-0.93-0.34C50.93,41.97,50.81,41.69,50.81,41.35 M51.79,48.8l-1.18-3.17l-1.18,3.17H51.79z M47.8,41.35
		c0-0.33,0.12-0.61,0.36-0.84c0.24-0.23,0.56-0.34,0.95-0.34c0.38,0,0.69,0.11,0.94,0.34c0.24,0.22,0.36,0.5,0.36,0.84
		c0,0.34-0.12,0.62-0.36,0.83c-0.24,0.22-0.56,0.34-0.94,0.34c-0.39,0-0.71-0.11-0.95-0.34C47.92,41.97,47.8,41.69,47.8,41.35
		 M46.69,53.39c-0.34,0-0.64-0.13-0.89-0.38c-0.25-0.25-0.38-0.54-0.38-0.88c0-0.27,0.07-0.58,0.2-0.91l2.41-6
		c0.3-0.75,0.64-1.28,1.02-1.61c0.4-0.35,0.93-0.53,1.57-0.53s1.17,0.18,1.58,0.53c0.38,0.33,0.72,0.86,1.02,1.61l2.41,6
		c0.13,0.34,0.2,0.64,0.2,0.91c0,0.33-0.13,0.63-0.38,0.88c-0.25,0.25-0.55,0.38-0.89,0.38c-0.7,0-1.15-0.29-1.37-0.87l-0.43-1.15
		h-4.27l-0.43,1.15C47.84,53.1,47.38,53.39,46.69,53.39 M42.06,53.35c-0.41,0-0.73-0.13-0.98-0.38c-0.25-0.26-0.37-0.59-0.37-1.01
		v-5.99h-1.73c-0.4,0-0.72-0.12-0.98-0.37c-0.26-0.25-0.39-0.57-0.39-0.97s0.13-0.72,0.39-0.97c0.25-0.25,0.58-0.37,0.98-0.37h6.17
		c0.4,0,0.73,0.12,0.98,0.37c0.25,0.25,0.38,0.57,0.38,0.97s-0.12,0.72-0.38,0.97c-0.26,0.25-0.59,0.37-0.98,0.37h-1.73v5.99
		c0,0.42-0.12,0.75-0.37,1.01C42.79,53.22,42.46,53.35,42.06,53.35 M35.24,53.35c-0.41,0-0.74-0.13-0.98-0.38
		c-0.25-0.26-0.37-0.59-0.37-1.01v-7.45c0-0.42,0.12-0.75,0.37-1.01c0.25-0.26,0.58-0.38,0.98-0.38c0.41,0,0.74,0.13,0.98,0.38
		c0.25,0.26,0.37,0.59,0.37,1.01v7.45c0,0.42-0.12,0.75-0.37,1.01C35.98,53.22,35.65,53.35,35.24,53.35 M24.43,53.35
		c-0.41,0-0.74-0.13-0.98-0.38c-0.25-0.26-0.37-0.59-0.37-1.01v-7.33c0-0.47,0.13-0.84,0.38-1.11c0.25-0.27,0.59-0.41,1.03-0.41
		c0.3,0,0.56,0.07,0.78,0.22c0.22,0.15,0.49,0.43,0.8,0.85l3.21,4.27v-3.94c0-0.42,0.12-0.75,0.37-1.01
		c0.25-0.26,0.57-0.38,0.98-0.38c0.41,0,0.74,0.13,0.98,0.38c0.25,0.26,0.37,0.59,0.37,1.01v7.32c0,0.47-0.12,0.84-0.37,1.11
		c-0.25,0.27-0.58,0.41-1,0.41c-0.51,0-1.01-0.32-1.51-0.96l-3.32-4.23v3.8c0,0.42-0.12,0.75-0.37,1.01
		C25.16,53.22,24.83,53.35,24.43,53.35 M18.1,48.8l-1.17-3.17l-1.18,3.17H18.1z M12.99,53.39c-0.34,0-0.64-0.13-0.89-0.38
		c-0.25-0.25-0.38-0.54-0.38-0.88c0-0.27,0.07-0.58,0.2-0.91l2.4-6c0.3-0.75,0.64-1.28,1.02-1.61c0.4-0.35,0.93-0.53,1.57-0.53
		s1.17,0.18,1.58,0.53c0.38,0.33,0.72,0.86,1.02,1.61l2.41,6c0.13,0.34,0.2,0.64,0.2,0.91c0,0.33-0.13,0.63-0.38,0.88
		c-0.25,0.25-0.55,0.38-0.89,0.38c-0.7,0-1.15-0.29-1.37-0.87l-0.43-1.15h-4.27l-0.43,1.15C14.14,53.1,13.69,53.39,12.99,53.39
		 M7.16,53.39c-1.36,0-2.54-0.35-3.53-1.06C3.1,51.94,2.83,51.5,2.83,51c0-0.36,0.12-0.66,0.36-0.91c0.25-0.25,0.55-0.38,0.9-0.38
		c0.28,0,0.57,0.1,0.88,0.29c0.92,0.57,1.72,0.86,2.43,0.86c0.72,0,1.08-0.19,1.08-0.58c0-0.28-0.22-0.45-0.65-0.54l-2.01-0.4
		c-1.77-0.36-2.65-1.33-2.65-2.92c0-1.01,0.36-1.82,1.09-2.43c0.73-0.61,1.7-0.92,2.92-0.92c1.19,0,2.27,0.33,3.25,1
		c0.51,0.35,0.77,0.8,0.77,1.35c0,0.36-0.1,0.66-0.3,0.9c-0.22,0.25-0.5,0.37-0.86,0.37c-0.34,0-0.76-0.14-1.25-0.43
		c-0.77-0.45-1.4-0.67-1.92-0.67c-0.55,0-0.83,0.18-0.83,0.55c0,0.17,0.06,0.3,0.18,0.38c0.11,0.07,0.3,0.14,0.57,0.21l1.91,0.44
		c0.82,0.19,1.44,0.48,1.85,0.86c0.51,0.47,0.76,1.13,0.76,1.98c0,1.04-0.38,1.86-1.14,2.47C9.43,53.09,8.42,53.39,7.16,53.39"/>
</g>
<g>
	<defs>
		<rect id="SVGID_00000039827216763301755050000008341986956423415960_" y="3.4" width="240.95" height="56.69"/>
	</defs>
	<clipPath id="SVGID_00000072243944329800533790000013981003002332276158_">
		<use xlink:href="#SVGID_00000039827216763301755050000008341986956423415960_"  style="overflow:visible;"/>
	</clipPath>
	<g style="clip-path:url(#SVGID_00000072243944329800533790000013981003002332276158_);">
		<text transform="matrix(1 0 0 1 3.9579 52.6935)"><tspan x="0" y="0" class="st5 st6 st7">S</tspan><tspan x="9.43" y="0" class="st5 st6 st7">A</tspan><tspan x="19.46" y="0" class="st5 st6 st7">N</tspan><tspan x="30.3" y="0" class="st5 st6 st7">I</tspan><tspan x="34.46" y="0" class="st5 st6 st7 st8">T</tspan><tspan x="42.52" y="0" class="st5 st6 st7">ÄR</tspan><tspan x="62.39" y="0" class="st5 st6 st7"> </tspan><tspan x="67.15" y="0" class="st5 st6 st7">/</tspan><tspan x="76.18" y="0" class="st5 st6 st7"> </tspan><tspan x="79.52" y="0" class="st5 st6 st7">H</tspan><tspan x="90.31" y="0" class="st5 st6 st7">E</tspan><tspan x="99.47" y="0" class="st5 st6 st7">I</tspan><tspan x="103.7" y="0" class="st5 st6 st7">Z</tspan><tspan x="113" y="0" class="st5 st6 st7">U</tspan><tspan x="123.33" y="0" class="st5 st6 st7">N</tspan><tspan x="134.13" y="0" class="st5 st6 st7">G</tspan><tspan x="145.1" y="0" class="st5 st6 st7"> </tspan><tspan x="149.86" y="0" class="st5 st6 st7">/</tspan><tspan x="158.89" y="0" class="st5 st6 st7"> </tspan><tspan x="162.23" y="0" class="st5 st6 st7">P</tspan><tspan x="171.44" y="0" class="st5 st6 st7">L</tspan><tspan x="180.1" y="0" class="st5 st6 st7">A</tspan><tspan x="190.14" y="0" class="st5 st6 st7">NU</tspan><tspan x="211.34" y="0" class="st5 st6 st7">N</tspan><tspan x="222.15" y="0" class="st5 st6 st7">G</tspan></text>
	</g>
</g>
</svg>
