<svg id="Layer_1" data-name="Layer 1" xmlns="http://www.w3.org/2000/svg" xmlns:xlink="http://www.w3.org/1999/xlink" viewBox="0 0 240.95 56.69"><defs><style>.cls-1{fill:none;}.cls-2{clip-path:url(#clip-path);}.cls-3{fill:#0061af;}.cls-4{fill:#fff;}</style><clipPath id="clip-path"><rect class="cls-1" x="2.84" y="14.23" width="235.27" height="31.18"/></clipPath></defs><g class="cls-2"><path class="cls-3" d="M224.79,43.79A14.73,14.73,0,0,1,214,39.73a14.2,14.2,0,0,1-4.08-10.59,14.36,14.36,0,0,1,4.33-10.76,15,15,0,0,1,10.88-4.16,16.57,16.57,0,0,1,9.7,2.86A4.64,4.64,0,0,1,237.05,21,3.17,3.17,0,0,1,236,23.49a3.47,3.47,0,0,1-2.34.83,7.23,7.23,0,0,1-3.55-1,10.71,10.71,0,0,0-5.28-1.44,6.61,6.61,0,0,0-5,2,7.26,7.26,0,0,0-1.93,5.18,6.92,6.92,0,0,0,1.93,5.07,7,7,0,0,0,5.24,2q4.51,0,5-2.86h-4.53a3.8,3.8,0,0,1-2.68-1,3.39,3.39,0,0,1-1.11-2.56A3.46,3.46,0,0,1,222.84,27a3.87,3.87,0,0,1,2.68-.93h8.79A3.73,3.73,0,0,1,237,27a4.06,4.06,0,0,1,1.16,3.09q0,6.72-3.8,10.33-3.54,3.35-9.52,3.35"/><path class="cls-3" d="M197.62,30.64l-3.37-9.1-3.39,9.1ZM183,43.79a3.5,3.5,0,0,1-2.57-1.09,3.45,3.45,0,0,1-1.08-2.52,7.26,7.26,0,0,1,.57-2.62l3.45-8.6,3.45-8.61a11.63,11.63,0,0,1,2.92-4.61,6.6,6.6,0,0,1,4.51-1.52,6.69,6.69,0,0,1,4.53,1.52,11.85,11.85,0,0,1,2.92,4.61l6.9,17.21a7.26,7.26,0,0,1,.57,2.62,3.43,3.43,0,0,1-1.09,2.52,3.46,3.46,0,0,1-2.56,1.09,3.76,3.76,0,0,1-3.92-2.51L200.36,38H188.12l-1.22,3.31A3.76,3.76,0,0,1,183,43.79"/><path class="cls-3" d="M162.52,43.78a3.75,3.75,0,0,1-2.83-1.11,4,4,0,0,1-1.07-2.9v-7.1h-10v7.1a4,4,0,0,1-1.07,2.9,4.16,4.16,0,0,1-5.66,0,4,4,0,0,1-1.07-2.9V18.33a4,4,0,0,1,1.07-2.91,4.16,4.16,0,0,1,5.66,0,4,4,0,0,1,1.07,2.91v7h10v-7a4,4,0,0,1,1.07-2.91,4.16,4.16,0,0,1,5.66,0,4,4,0,0,1,1.07,2.91V39.77a4,4,0,0,1-1.07,2.9,3.74,3.74,0,0,1-2.83,1.11"/><path class="cls-3" d="M115.76,43.69a3.64,3.64,0,0,1-2.71-1A3.56,3.56,0,0,1,112,40a5.2,5.2,0,0,1,1.53-3.45l13.06-14.81H115.64a3.85,3.85,0,0,1-2.75-1,3.54,3.54,0,0,1-1.08-2.65,3.63,3.63,0,0,1,1.08-2.7,3.82,3.82,0,0,1,2.75-1H134.1a3.72,3.72,0,0,1,2.7,1,3.63,3.63,0,0,1,1.08,2.7,5.52,5.52,0,0,1-1.57,3.53L123.52,36.29h11a3.76,3.76,0,0,1,2.75,1A3.56,3.56,0,0,1,138.33,40a3.49,3.49,0,0,1-1.09,2.65,3.83,3.83,0,0,1-2.75,1Z"/><path class="cls-3" d="M91.39,43.69a3.83,3.83,0,0,1-2.92-1.14,4.12,4.12,0,0,1-1.11-3V18.45a4.15,4.15,0,0,1,1.11-3,3.83,3.83,0,0,1,2.92-1.14h14.47a4,4,0,0,1,2.92,1.1,3.9,3.9,0,0,1,1.13,2.88,3.9,3.9,0,0,1-1.13,2.88,4,4,0,0,1-2.92,1.1H95.41v3H105a3.75,3.75,0,0,1,2.73,1,3.62,3.62,0,0,1,1.06,2.67,3.5,3.5,0,0,1-1.08,2.65,3.8,3.8,0,0,1-2.71,1H95.41v3.13H105.9a4,4,0,0,1,2.92,1.1,4.17,4.17,0,0,1,0,5.75,4,4,0,0,1-2.92,1.1Z"/><path class="cls-3" d="M72.05,43.79A12.65,12.65,0,0,1,63,40.56a11.36,11.36,0,0,1-3.43-8.68V18.33a3.92,3.92,0,0,1,1.09-2.9,3.83,3.83,0,0,1,2.85-1.11,3.62,3.62,0,0,1,2.78,1.11,4,4,0,0,1,1,2.9V31.17a4.6,4.6,0,0,0,1.34,3.43,4.54,4.54,0,0,0,3.41,1.34,4.56,4.56,0,0,0,4.75-4.77V18.33a4,4,0,0,1,1-2.9,3.7,3.7,0,0,1,2.8-1.11,3.8,3.8,0,0,1,2.84,1.11,4,4,0,0,1,1.08,2.9V31.88a11.42,11.42,0,0,1-3.41,8.68,12.7,12.7,0,0,1-9.1,3.23"/><path class="cls-3" d="M46.13,26.92a2.92,2.92,0,0,0,2-.7,2.54,2.54,0,0,0,0-3.7,2.92,2.92,0,0,0-2-.7H41.06v5.1Zm-9,16.86a3.77,3.77,0,0,1-2.87-1.13,4,4,0,0,1-1.09-2.95V18.4a4.07,4.07,0,0,1,1.09-3,3.8,3.8,0,0,1,2.87-1.13h8.54A12.26,12.26,0,0,1,54,17.11a9.14,9.14,0,0,1,3.22,7.26,9.11,9.11,0,0,1-4.2,8l3.4,5a5.48,5.48,0,0,1,1.07,3.1,3,3,0,0,1-1.15,2.31,4,4,0,0,1-2.68,1,3.64,3.64,0,0,1-3.22-1.69l-5.11-7.66H41.06V39.7A4,4,0,0,1,40,42.65a3.77,3.77,0,0,1-2.88,1.13"/><path class="cls-3" d="M17.74,43.78a14.69,14.69,0,0,1-10.8-4.05A14.14,14.14,0,0,1,2.87,29.18,14.29,14.29,0,0,1,7.2,18.46a14.93,14.93,0,0,1,10.85-4.15,16.47,16.47,0,0,1,9.67,2.85A4.61,4.61,0,0,1,30,21a3.15,3.15,0,0,1-1.08,2.52,3.46,3.46,0,0,1-2.34.82,7.21,7.21,0,0,1-3.54-1,10.63,10.63,0,0,0-5.26-1.43,6.58,6.58,0,0,0-5,2,7.25,7.25,0,0,0-1.93,5.17A6.79,6.79,0,0,0,18,36.18q4.5,0,5-2.85H18.46a3.77,3.77,0,0,1-2.67-1,3.41,3.41,0,0,1-1.1-2.56A3.5,3.5,0,0,1,15.79,27a3.9,3.9,0,0,1,2.67-.92h8.77a3.76,3.76,0,0,1,2.64,1A4.07,4.07,0,0,1,31,30.15q0,6.69-3.8,10.29-3.51,3.35-9.49,3.34"/><path class="cls-4" d="M136.31,39a.47.47,0,0,0-.48.48,1.75,1.75,0,0,1-.47,1.29,1.63,1.63,0,0,1-1.24.48H115a.47.47,0,0,0-.48.48.48.48,0,0,0,.48.48h19.13a2.64,2.64,0,0,0,1.93-.76h0l-.34-.33h0l.34.33a2.69,2.69,0,0,0,.74-2,.47.47,0,0,0-.48-.48"/><path class="cls-4" d="M116.1,16.9h18.79a.49.49,0,1,0,0-1H116.1a2.61,2.61,0,0,0-1.93.77h0l.34.33h0l-.34-.34a2.69,2.69,0,0,0-.74,2,.48.48,0,1,0,1,0,1.77,1.77,0,0,1,.47-1.29,1.63,1.63,0,0,1,1.24-.47"/><path class="cls-4" d="M145.07,16.9a.49.49,0,0,0,0-1,2.61,2.61,0,0,0-1.93.77h0l.34.33h0l-.34-.34a2.69,2.69,0,0,0-.74,2,.48.48,0,1,0,1,0,1.77,1.77,0,0,1,.47-1.29,1.63,1.63,0,0,1,1.24-.47"/><path class="cls-4" d="M162.92,16.9a.49.49,0,0,0,0-1,2.59,2.59,0,0,0-1.93.77h0l.35.33h0L161,16.7a2.73,2.73,0,0,0-.74,2,.49.49,0,1,0,1,0,1.77,1.77,0,0,1,.46-1.29,1.67,1.67,0,0,1,1.25-.47"/><path class="cls-4" d="M164.35,39a.47.47,0,0,0-.48.48,1.75,1.75,0,0,1-.47,1.29,1.66,1.66,0,0,1-1.24.48.47.47,0,0,0-.48.48.48.48,0,0,0,.48.48,2.64,2.64,0,0,0,1.93-.76h0l-.34-.33h0l.34.33a2.73,2.73,0,0,0,.74-2,.48.48,0,0,0-.48-.48"/><path class="cls-4" d="M146.5,39a.48.48,0,0,0-.48.48,1.79,1.79,0,0,1-.46,1.29,1.67,1.67,0,0,1-1.25.48.48.48,0,0,0-.48.48.49.49,0,0,0,.48.48,2.64,2.64,0,0,0,1.93-.76h0l-.35-.33h0l.35.33a2.73,2.73,0,0,0,.73-2,.47.47,0,0,0-.48-.48"/><path class="cls-4" d="M18.62,16.81a.49.49,0,0,0,.48-.48.48.48,0,0,0-.48-.48A13.92,13.92,0,0,0,8.55,19.7h0l.33.34h0l-.33-.34a13.33,13.33,0,0,0-4,10,.49.49,0,1,0,1,0,12.36,12.36,0,0,1,3.73-9.28,13,13,0,0,1,9.4-3.58"/><path class="cls-4" d="M225.74,16.81a.48.48,0,0,0,.48-.48.47.47,0,0,0-.48-.48,13.92,13.92,0,0,0-10.07,3.85h0L216,20h0l-.33-.34a13.33,13.33,0,0,0-4,10,.49.49,0,1,0,1,0,12.39,12.39,0,0,1,3.73-9.28,13,13,0,0,1,9.4-3.58"/><path class="cls-4" d="M91.83,16.81h14.79a.48.48,0,0,0,.48-.48.47.47,0,0,0-.48-.48H91.83a2.83,2.83,0,0,0-2.1.82h0l.34.33h0l-.34-.33a2.92,2.92,0,0,0-.81,2.13.49.49,0,0,0,1,0,2,2,0,0,1,.53-1.46,1.88,1.88,0,0,1,1.41-.54"/><path class="cls-4" d="M78.81,19.29a.48.48,0,0,0,.48-.48,2,2,0,0,1,.53-1.46,1.88,1.88,0,0,1,1.41-.54.48.48,0,0,0,.48-.48.47.47,0,0,0-.48-.48,2.83,2.83,0,0,0-2.1.82h0l.34.33h0l-.34-.33a2.92,2.92,0,0,0-.81,2.13.48.48,0,0,0,.49.48"/><path class="cls-4" d="M64,15.85a2.83,2.83,0,0,0-2.1.82h0l.34.33h0l-.34-.33a2.92,2.92,0,0,0-.81,2.13.49.49,0,0,0,1,0,2,2,0,0,1,.53-1.46A1.88,1.88,0,0,1,64,16.81a.48.48,0,0,0,.48-.48.47.47,0,0,0-.48-.48"/><path class="cls-4" d="M46.83,15.85H37.68a2.85,2.85,0,0,0-2.1.82h0l.35.33h0l-.35-.33a3,3,0,0,0-.8,2.13.48.48,0,0,0,1,0,2,2,0,0,1,.53-1.46,1.9,1.9,0,0,1,1.41-.54h9.15a.49.49,0,0,0,.48-.48.48.48,0,0,0-.48-.48"/><path class="cls-4" d="M28.86,30.57a.48.48,0,0,0-.48.48,10.09,10.09,0,0,1-2.71,7.36A9.63,9.63,0,0,1,18.5,41.2a.48.48,0,0,0-.49.48.49.49,0,0,0,.49.48,10.61,10.61,0,0,0,7.86-3.08L26,38.75l.35.33h0a11.06,11.06,0,0,0,3-8,.48.48,0,0,0-.49-.48"/><path class="cls-4" d="M82.57,30.57a.48.48,0,0,0-.48.48,10.09,10.09,0,0,1-2.71,7.36A9.66,9.66,0,0,1,72.2,41.2a.48.48,0,0,0-.48.48.49.49,0,0,0,.48.48,10.58,10.58,0,0,0,7.86-3.08l-.34-.33.34.33h0a11.05,11.05,0,0,0,3-8,.47.47,0,0,0-.48-.48"/><path class="cls-4" d="M236,30.57a.47.47,0,0,0-.48.48,10.09,10.09,0,0,1-2.72,7.36,9.63,9.63,0,0,1-7.17,2.79.47.47,0,0,0-.48.48.48.48,0,0,0,.48.48,10.59,10.59,0,0,0,7.86-3.08l-.34-.33.34.33h0a11.06,11.06,0,0,0,3-8,.48.48,0,0,0-.48-.48"/><path class="cls-4" d="M107.86,39a.48.48,0,0,0-.48.48,1.75,1.75,0,0,1-.46,1.29,1.67,1.67,0,0,1-1.25.48H90.52a.48.48,0,0,0-.49.48.49.49,0,0,0,.49.48h15.15a2.62,2.62,0,0,0,1.93-.76h0l-.35-.33h0l.35.33a2.73,2.73,0,0,0,.74-2,.48.48,0,0,0-.49-.48"/><path class="cls-4" d="M27.21,28a.48.48,0,0,0,.49-.48.49.49,0,0,0-.49-.48H18.3a2.6,2.6,0,0,0-1.94.77,2.73,2.73,0,0,0-.74,2,.48.48,0,0,0,.48.48.47.47,0,0,0,.48-.48,1.75,1.75,0,0,1,.47-1.29A1.64,1.64,0,0,1,18.3,28Z"/><path class="cls-4" d="M55.5,39a.47.47,0,0,0-.48.48,2.16,2.16,0,0,1-.11.8,1.36,1.36,0,0,1-.33.49,1.94,1.94,0,0,1-1.24.53.49.49,0,0,0,0,1,2.92,2.92,0,0,0,1.93-.82h0l-.34-.33h0l.34.33a2.46,2.46,0,0,0,.55-.82A3.31,3.31,0,0,0,56,39.43.47.47,0,0,0,55.5,39"/><path class="cls-4" d="M39,39a.47.47,0,0,0-.48.48,2.16,2.16,0,0,1-.11.8,1.36,1.36,0,0,1-.33.49,1.94,1.94,0,0,1-1.24.53.49.49,0,0,0,0,1,2.92,2.92,0,0,0,1.93-.82h0l-.34-.33h0l.34.33a2.3,2.3,0,0,0,.54-.82,3.3,3.3,0,0,0,.17-1.14A.48.48,0,0,0,39,39"/><path class="cls-4" d="M234.34,28a.48.48,0,0,0,.48-.48.49.49,0,0,0-.48-.48h-8.92a2.61,2.61,0,0,0-1.94.77,2.73,2.73,0,0,0-.74,2,.49.49,0,0,0,1,0,1.75,1.75,0,0,1,.46-1.29,1.64,1.64,0,0,1,1.25-.48Z"/><path class="cls-4" d="M194.68,15.85a5.82,5.82,0,0,0-4,1.34h0a9.93,9.93,0,0,0-2.49,3.92l-2.8,7a.48.48,0,0,0,.9.36l2.79-7a9.11,9.11,0,0,1,2.23-3.55h0a4.88,4.88,0,0,1,3.34-1.11.48.48,0,0,0,.48-.48.47.47,0,0,0-.48-.48"/><path class="cls-4" d="M206.42,37.54a.48.48,0,0,0-.13.67,2.28,2.28,0,0,1,.42,1.3,1.67,1.67,0,0,1-.49,1.19,1.45,1.45,0,0,1-1.1.5.47.47,0,0,0-.48.48.48.48,0,0,0,.48.48,2.41,2.41,0,0,0,1.8-.8,2.58,2.58,0,0,0,.75-1.85,3.26,3.26,0,0,0-.58-1.85.49.49,0,0,0-.67-.12"/><path class="cls-4" d="M185.39,39.2a.49.49,0,0,0-.6.33,2.54,2.54,0,0,1-.72,1.28,1.73,1.73,0,0,1-1.18.39.48.48,0,0,0-.48.48.49.49,0,0,0,.48.48,2.73,2.73,0,0,0,1.81-.62,3.43,3.43,0,0,0,1-1.75.48.48,0,0,0-.33-.59"/><path class="cls-3" d="M233.31,60.81a5.1,5.1,0,0,1-3.77-1.42,4.93,4.93,0,0,1-1.42-3.69A5,5,0,0,1,229.63,52a5.21,5.21,0,0,1,3.79-1.45,5.75,5.75,0,0,1,3.39,1,1.6,1.6,0,0,1,.78,1.35,1.11,1.11,0,0,1-.38.88,1.23,1.23,0,0,1-.82.29,2.47,2.47,0,0,1-1.23-.36,3.81,3.81,0,0,0-1.85-.5,2.28,2.28,0,0,0-1.73.71,2.51,2.51,0,0,0-.67,1.8,2.42,2.42,0,0,0,.67,1.77,2.45,2.45,0,0,0,1.83.71c1.05,0,1.63-.33,1.74-1h-1.58a1.33,1.33,0,0,1-.94-.36,1.3,1.3,0,0,1,0-1.84,1.37,1.37,0,0,1,.94-.33h3.06a1.3,1.3,0,0,1,.93.34A1.43,1.43,0,0,1,238,56a4.71,4.71,0,0,1-1.33,3.6,4.61,4.61,0,0,1-3.32,1.17m-14.17,0a1.29,1.29,0,0,1-1-.38,1.43,1.43,0,0,1-.37-1V52.05a1.57,1.57,0,0,1,.38-1.11,1.33,1.33,0,0,1,1-.41,1.46,1.46,0,0,1,.79.22,3.72,3.72,0,0,1,.79.85L224,55.87V51.93a1.41,1.41,0,0,1,.37-1,1.44,1.44,0,0,1,2,0,1.37,1.37,0,0,1,.37,1v7.32a1.57,1.57,0,0,1-.37,1.11,1.26,1.26,0,0,1-1,.41,2,2,0,0,1-1.51-1l-3.32-4.23v3.8a1.38,1.38,0,0,1-.37,1,1.3,1.3,0,0,1-1,.38m-7.46,0a4.42,4.42,0,0,1-3.17-1.13,4,4,0,0,1-1.19-3V51.93a1.33,1.33,0,0,1,.38-1,1.31,1.31,0,0,1,1-.39,1.25,1.25,0,0,1,1,.39,1.41,1.41,0,0,1,.37,1v4.48a1.64,1.64,0,0,0,.46,1.2,1.66,1.66,0,0,0,2.85-1.2V51.93a1.4,1.4,0,0,1,.36-1,1.44,1.44,0,0,1,2,0,1.37,1.37,0,0,1,.38,1v4.73a4,4,0,0,1-1.19,3,4.45,4.45,0,0,1-3.18,1.13m-13.65,0a1.29,1.29,0,0,1-1-.38,1.43,1.43,0,0,1-.37-1V52.05a1.57,1.57,0,0,1,.38-1.11,1.33,1.33,0,0,1,1-.41,1.46,1.46,0,0,1,.79.22,3.72,3.72,0,0,1,.79.85l3.21,4.27V51.93a1.41,1.41,0,0,1,.37-1,1.44,1.44,0,0,1,2,0,1.37,1.37,0,0,1,.37,1v7.32a1.57,1.57,0,0,1-.37,1.11,1.26,1.26,0,0,1-1,.41,2,2,0,0,1-1.51-1l-3.32-4.23v3.8a1.38,1.38,0,0,1-.37,1,1.28,1.28,0,0,1-1,.38m-6.33-4.55-1.18-3.17-1.18,3.17Zm-5.11,4.59a1.23,1.23,0,0,1-.89-.38,1.2,1.2,0,0,1-.38-.88,2.59,2.59,0,0,1,.2-.91l2.41-6a4,4,0,0,1,1-1.61,2.62,2.62,0,0,1,3.16,0,4.06,4.06,0,0,1,1,1.61l2.4,6a2.59,2.59,0,0,1,.2.91,1.2,1.2,0,0,1-.38.88,1.23,1.23,0,0,1-.89.38,1.31,1.31,0,0,1-1.37-.87l-.43-1.16h-4.26L188,59.94a1.31,1.31,0,0,1-1.37.87m-7.46-.21a1.32,1.32,0,0,1-1-.38,1.4,1.4,0,0,1-.37-1V51.93a1.37,1.37,0,0,1,.37-1,1.29,1.29,0,0,1,1-.39,1.27,1.27,0,0,1,1,.39,1.37,1.37,0,0,1,.37,1v6h3.28a1.37,1.37,0,0,1,1,.37,1.29,1.29,0,0,1,.38,1,1.27,1.27,0,0,1-.38,1,1.33,1.33,0,0,1-1,.37Zm-6.31-5.53a1,1,0,0,0,.7-.26.82.82,0,0,0,.27-.64.86.86,0,0,0-.27-.65,1,1,0,0,0-.7-.25h-1.75v1.8Zm-3.1,5.7a1.3,1.3,0,0,1-1-.38,1.43,1.43,0,0,1-.37-1V52.1a1.43,1.43,0,0,1,.37-1,1.31,1.31,0,0,1,1-.39h2.86a4.38,4.38,0,0,1,2.92.94,3.42,3.42,0,0,1,0,5.06,4.37,4.37,0,0,1-2.92.93h-1.51v1.75a1.38,1.38,0,0,1-.37,1,1.3,1.3,0,0,1-1,.38m-13.4.83a1.32,1.32,0,0,1-.93-.33,1.07,1.07,0,0,1-.37-.85,1.3,1.3,0,0,1,.15-.55l4.27-8.9a3.72,3.72,0,0,1,.55-.92,1.1,1.1,0,0,1,.85-.34,1.32,1.32,0,0,1,.93.33,1.07,1.07,0,0,1,.38.84,1.14,1.14,0,0,1-.16.55l-4.26,8.9a4.19,4.19,0,0,1-.55.93,1.16,1.16,0,0,1-.86.34m-11.86-.79a5.1,5.1,0,0,1-3.77-1.42,4.93,4.93,0,0,1-1.42-3.69A5,5,0,0,1,140.78,52a5.21,5.21,0,0,1,3.79-1.45,5.77,5.77,0,0,1,3.39,1,1.6,1.6,0,0,1,.78,1.35,1.11,1.11,0,0,1-.38.88,1.23,1.23,0,0,1-.82.29,2.47,2.47,0,0,1-1.23-.36,3.81,3.81,0,0,0-1.85-.5,2.28,2.28,0,0,0-1.73.71,2.51,2.51,0,0,0-.67,1.8,2.42,2.42,0,0,0,.67,1.77,2.45,2.45,0,0,0,1.83.71c1.05,0,1.63-.33,1.74-1h-1.58a1.33,1.33,0,0,1-.94-.36,1.3,1.3,0,0,1,0-1.84,1.37,1.37,0,0,1,.94-.33h3.06a1.28,1.28,0,0,1,.92.34,1.43,1.43,0,0,1,.41,1.08,4.71,4.71,0,0,1-1.33,3.6,4.61,4.61,0,0,1-3.32,1.17m-14.17,0a1.29,1.29,0,0,1-1-.38,1.43,1.43,0,0,1-.37-1V52.05a1.57,1.57,0,0,1,.38-1.11,1.33,1.33,0,0,1,1-.41,1.43,1.43,0,0,1,.78.22,3.72,3.72,0,0,1,.8.85l3.21,4.27V51.93a1.41,1.41,0,0,1,.37-1,1.44,1.44,0,0,1,2,0,1.37,1.37,0,0,1,.37,1v7.32a1.57,1.57,0,0,1-.37,1.11,1.26,1.26,0,0,1-1,.41,2,2,0,0,1-1.51-1l-3.32-4.23v3.8a1.38,1.38,0,0,1-.37,1,1.3,1.3,0,0,1-1,.38m-7.46,0a4.42,4.42,0,0,1-3.17-1.13,4,4,0,0,1-1.19-3V51.93a1.37,1.37,0,0,1,.37-1,1.35,1.35,0,0,1,1-.39,1.27,1.27,0,0,1,1,.39,1.4,1.4,0,0,1,.36,1v4.48a1.64,1.64,0,0,0,.47,1.2,1.78,1.78,0,0,0,2.39,0,1.66,1.66,0,0,0,.46-1.2V51.93a1.4,1.4,0,0,1,.36-1,1.29,1.29,0,0,1,1-.39,1.31,1.31,0,0,1,1,.39,1.37,1.37,0,0,1,.38,1v4.73a4,4,0,0,1-1.19,3,4.45,4.45,0,0,1-3.18,1.13m-13-.21a1.21,1.21,0,0,1-.91-.35,1.19,1.19,0,0,1-.36-.9,1.72,1.72,0,0,1,.52-1.16l4.39-5h-3.68a1.35,1.35,0,0,1-.93-.34,1.22,1.22,0,0,1-.36-.9,1.21,1.21,0,0,1,.36-.9,1.27,1.27,0,0,1,.93-.36H116a1.23,1.23,0,0,1,.91.36,1.21,1.21,0,0,1,.36.9,1.81,1.81,0,0,1-.53,1.19l-4.31,5h3.7a1.25,1.25,0,0,1,.93.35,1.23,1.23,0,0,1,.36.91,1.2,1.2,0,0,1-.36.89,1.29,1.29,0,0,1-.93.34Zm-3.94.17a1.27,1.27,0,0,1-1-.38,1.39,1.39,0,0,1-.38-1V51.93a1.37,1.37,0,0,1,.38-1,1.27,1.27,0,0,1,1-.39,1.29,1.29,0,0,1,1,.39,1.37,1.37,0,0,1,.37,1v7.45a1.38,1.38,0,0,1-.37,1,1.28,1.28,0,0,1-1,.38m-9.21-.17a1.3,1.3,0,0,1-1-.38,1.4,1.4,0,0,1-.37-1V52.1a1.38,1.38,0,0,1,.37-1,1.27,1.27,0,0,1,1-.39h4.87a1.34,1.34,0,0,1,1,.38,1.42,1.42,0,0,1,0,1.93,1.34,1.34,0,0,1-1,.38H98v1h3.23a1.28,1.28,0,0,1,.92.35,1.3,1.3,0,0,1,0,1.8,1.29,1.29,0,0,1-.92.34H98v1.05h3.53a1.37,1.37,0,0,1,1,.37,1.3,1.3,0,0,1,.39,1,1.28,1.28,0,0,1-.39,1,1.33,1.33,0,0,1-1,.37ZM92,60.77a1.3,1.3,0,0,1-1-.38,1.38,1.38,0,0,1-.37-1V56.91H87.18v2.47a1.38,1.38,0,0,1-.37,1,1.28,1.28,0,0,1-1,.38,1.27,1.27,0,0,1-1-.38,1.39,1.39,0,0,1-.38-1V51.93a1.37,1.37,0,0,1,.38-1,1.27,1.27,0,0,1,1-.39,1.29,1.29,0,0,1,1,.39,1.37,1.37,0,0,1,.37,1v2.42h3.48V51.93a1.37,1.37,0,0,1,.37-1,1.44,1.44,0,0,1,2,0,1.37,1.37,0,0,1,.37,1v7.45a1.38,1.38,0,0,1-.37,1,1.3,1.3,0,0,1-1,.38m-19.57.83a1.35,1.35,0,0,1-.94-.33,1.07,1.07,0,0,1-.37-.85,1.3,1.3,0,0,1,.15-.55L75.55,51a3.72,3.72,0,0,1,.55-.92,1.1,1.1,0,0,1,.85-.34,1.37,1.37,0,0,1,.94.33,1.1,1.1,0,0,1,.37.84,1.23,1.23,0,0,1-.15.55l-4.27,8.9a4.19,4.19,0,0,1-.55.93,1.15,1.15,0,0,1-.85.34M61.21,55a1,1,0,0,0,.69-.24.87.87,0,0,0,0-1.26,1,1,0,0,0-.69-.24H59.48V55Zm-3.09,5.76a1.28,1.28,0,0,1-1-.38,1.38,1.38,0,0,1-.37-1V52.1a1.38,1.38,0,0,1,.37-1,1.29,1.29,0,0,1,1-.39H61a4.21,4.21,0,0,1,2.86,1A3.14,3.14,0,0,1,65,54.14a3.1,3.1,0,0,1-1.44,2.74l1.16,1.71a1.85,1.85,0,0,1,.36,1.06,1,1,0,0,1-.39.79,1.38,1.38,0,0,1-.91.33,1.25,1.25,0,0,1-1.1-.57l-1.75-2.62H59.48v1.8a1.39,1.39,0,0,1-.38,1,1.27,1.27,0,0,1-1,.38m-7.31-12a1.12,1.12,0,0,1,.36-.84,1.33,1.33,0,0,1,.93-.34,1.41,1.41,0,0,1,1,.34,1.12,1.12,0,0,1,.36.84,1.05,1.05,0,0,1-.36.83,1.36,1.36,0,0,1-1,.34,1.29,1.29,0,0,1-.93-.34,1.05,1.05,0,0,1-.36-.83m1,7.45-1.17-3.17-1.18,3.17Zm-4-7.45a1.12,1.12,0,0,1,.36-.84,1.48,1.48,0,0,1,1.89,0,1.12,1.12,0,0,1,.36.84,1.05,1.05,0,0,1-.36.83,1.48,1.48,0,0,1-1.89,0,1.05,1.05,0,0,1-.36-.83m-1.11,12a1.25,1.25,0,0,1-.9-.38,1.19,1.19,0,0,1-.37-.88,2.56,2.56,0,0,1,.19-.91l2.41-6A4.06,4.06,0,0,1,49,51a2.26,2.26,0,0,1,1.57-.53,2.29,2.29,0,0,1,1.58.53,4.06,4.06,0,0,1,1,1.61l2.41,6a2.56,2.56,0,0,1,.19.91,1.19,1.19,0,0,1-.37.88,1.25,1.25,0,0,1-.9.38,1.3,1.3,0,0,1-1.36-.87l-.43-1.16H48.48l-.43,1.16a1.3,1.3,0,0,1-1.36.87m-4.63,0a1.3,1.3,0,0,1-1-.38,1.43,1.43,0,0,1-.37-1v-6H39A1.35,1.35,0,0,1,38,53a1.42,1.42,0,0,1,0-1.93,1.35,1.35,0,0,1,1-.38h6.17a1.37,1.37,0,0,1,1,.38,1.44,1.44,0,0,1,0,1.93,1.37,1.37,0,0,1-1,.38H43.41v6a1.38,1.38,0,0,1-.37,1,1.3,1.3,0,0,1-1,.38m-6.82,0a1.28,1.28,0,0,1-1-.38,1.38,1.38,0,0,1-.37-1V51.93a1.37,1.37,0,0,1,.37-1,1.29,1.29,0,0,1,1-.39,1.27,1.27,0,0,1,1,.39,1.37,1.37,0,0,1,.38,1v7.45a1.39,1.39,0,0,1-.38,1,1.27,1.27,0,0,1-1,.38m-10.81,0a1.29,1.29,0,0,1-1-.38,1.38,1.38,0,0,1-.37-1V52.05a1.57,1.57,0,0,1,.38-1.11,1.33,1.33,0,0,1,1-.41,1.43,1.43,0,0,1,.78.22,3.72,3.72,0,0,1,.8.85l3.21,4.27V51.93a1.37,1.37,0,0,1,.37-1,1.44,1.44,0,0,1,2,0,1.37,1.37,0,0,1,.37,1v7.32a1.57,1.57,0,0,1-.37,1.11,1.26,1.26,0,0,1-1,.41,2,2,0,0,1-1.51-1l-3.32-4.23v3.8a1.38,1.38,0,0,1-.37,1,1.3,1.3,0,0,1-1,.38M18.1,56.22l-1.18-3.17-1.18,3.17ZM13,60.81a1.23,1.23,0,0,1-.89-.38,1.17,1.17,0,0,1-.38-.88,2.59,2.59,0,0,1,.2-.91l2.4-6a4.06,4.06,0,0,1,1-1.61,2.27,2.27,0,0,1,1.58-.53A2.31,2.31,0,0,1,18.5,51a4,4,0,0,1,1,1.61l2.41,6a2.59,2.59,0,0,1,.2.91,1.2,1.2,0,0,1-.38.88,1.23,1.23,0,0,1-.89.38,1.31,1.31,0,0,1-1.37-.87l-.43-1.16H14.78l-.42,1.16a1.31,1.31,0,0,1-1.37.87m-5.83,0a5.93,5.93,0,0,1-3.53-1.07,1.63,1.63,0,0,1-.8-1.32,1.25,1.25,0,0,1,.37-.9,1.19,1.19,0,0,1,.9-.38,1.61,1.61,0,0,1,.88.29,4.77,4.77,0,0,0,2.43.86c.71,0,1.07-.2,1.07-.59s-.21-.45-.64-.53l-2-.41c-1.76-.36-2.65-1.33-2.65-2.91a3,3,0,0,1,1.09-2.43,4.43,4.43,0,0,1,2.93-.92,5.62,5.62,0,0,1,3.25,1,1.56,1.56,0,0,1,.77,1.35,1.31,1.31,0,0,1-.31.9,1.06,1.06,0,0,1-.86.37,2.58,2.58,0,0,1-1.25-.43A4,4,0,0,0,6.88,53c-.56,0-.84.19-.84.55a.47.47,0,0,0,.19.39,1.9,1.9,0,0,0,.57.2l1.91.44a4.19,4.19,0,0,1,1.86.86,2.58,2.58,0,0,1,.76,2,3,3,0,0,1-1.14,2.47,4.7,4.7,0,0,1-3,.91"/></g></svg>