<svg width="28" height="28" viewBox="0 0 28 28" fill="none" xmlns="http://www.w3.org/2000/svg">
<path d="M20.5566 12.5417C20.0549 12.5417 19.6583 12.1333 19.6583 11.6433C19.6583 11.2117 19.2266 10.3133 18.5033 9.53166C17.7916 8.77333 17.0099 8.32999 16.3566 8.32999C15.8549 8.32999 15.4583 7.92166 15.4583 7.43166C15.4583 6.94166 15.8666 6.53333 16.3566 6.53333C17.5233 6.53333 18.7483 7.16333 19.8216 8.29499C20.8249 9.35666 21.4666 10.675 21.4666 11.6317C21.4666 12.1333 21.0583 12.5417 20.5566 12.5417Z" fill="#0057A4"/>
<path d="M24.7683 12.5417C24.2666 12.5417 23.87 12.1333 23.87 11.6433C23.87 7.50168 20.4983 4.14168 16.3683 4.14168C15.8666 4.14168 15.47 3.73334 15.47 3.24334C15.47 2.75334 15.8666 2.33334 16.3566 2.33334C21.49 2.33334 25.6666 6.51001 25.6666 11.6433C25.6666 12.1333 25.2583 12.5417 24.7683 12.5417Z" fill="#0057A4"/>
<path d="M12.8916 17.4417L10.7333 19.6C10.2783 20.055 9.55492 20.055 9.08825 19.6117C8.95992 19.4833 8.83159 19.3667 8.70325 19.2383C7.50159 18.025 6.41659 16.7533 5.44825 15.4233C4.49159 14.0933 3.72159 12.7633 3.16159 11.445C2.61325 10.115 2.33325 8.84334 2.33325 7.63001C2.33325 6.83668 2.47325 6.07834 2.75325 5.37834C3.03325 4.66668 3.47659 4.01334 4.09492 3.43001C4.84159 2.69501 5.65825 2.33334 6.52159 2.33334C6.84825 2.33334 7.17492 2.40334 7.46659 2.54334C7.76992 2.68334 8.03825 2.89334 8.24825 3.19668L10.9549 7.01168C11.1649 7.30334 11.3166 7.57168 11.4216 7.82834C11.5266 8.07334 11.5849 8.31834 11.5849 8.54001C11.5849 8.82001 11.5033 9.10001 11.3399 9.36834C11.1883 9.63668 10.9666 9.91668 10.6866 10.1967L9.79992 11.1183C9.67159 11.2467 9.61325 11.3983 9.61325 11.585C9.61325 11.6783 9.62492 11.76 9.64825 11.8533C9.68325 11.9467 9.71825 12.0167 9.74159 12.0867C9.95159 12.4717 10.3133 12.9733 10.8266 13.58C11.3516 14.1867 11.9116 14.805 12.5183 15.4233C12.6349 15.54 12.7633 15.6567 12.8799 15.7733C13.3466 16.2283 13.3583 16.975 12.8916 17.4417Z" fill="#0057A4"/>
<path d="M25.6316 21.385C25.6316 21.7117 25.5733 22.05 25.4566 22.3767C25.4216 22.47 25.3866 22.5633 25.3399 22.6567C25.1416 23.0767 24.885 23.4733 24.5466 23.8467C23.975 24.4767 23.3449 24.9317 22.6333 25.2233C22.6216 25.2233 22.61 25.235 22.5983 25.235C21.91 25.515 21.1633 25.6667 20.3583 25.6667C19.1683 25.6667 17.8966 25.3867 16.555 24.815C15.2133 24.2433 13.8716 23.4733 12.5416 22.505C12.0866 22.1667 11.6316 21.8283 11.2 21.4667L15.015 17.6517C15.3416 17.8967 15.6333 18.0833 15.8783 18.2117C15.9366 18.235 16.0066 18.27 16.0883 18.305C16.1816 18.34 16.275 18.3517 16.38 18.3517C16.5783 18.3517 16.73 18.2817 16.8583 18.1533L17.745 17.2783C18.0366 16.9867 18.3166 16.765 18.585 16.625C18.8533 16.4617 19.1216 16.38 19.4133 16.38C19.6349 16.38 19.8683 16.4267 20.125 16.5317C20.3816 16.6367 20.65 16.7883 20.9416 16.9867L24.8033 19.7283C25.1066 19.9383 25.3166 20.1833 25.4449 20.475C25.5616 20.7667 25.6316 21.0583 25.6316 21.385Z" fill="#0057A4"/>
</svg>
