<svg width="28" height="28" viewBox="0 0 28 28" fill="none" xmlns="http://www.w3.org/2000/svg">
<path d="M13.9999 26.5417C7.08159 26.5417 1.45825 20.9183 1.45825 14C1.45825 7.08168 7.08159 1.45834 13.9999 1.45834C20.9183 1.45834 26.5416 7.08168 26.5416 14C26.5416 20.9183 20.9183 26.5417 13.9999 26.5417ZM13.9999 3.20834C8.04992 3.20834 3.20825 8.05001 3.20825 14C3.20825 19.95 8.04992 24.7917 13.9999 24.7917C19.9499 24.7917 24.7916 19.95 24.7916 14C24.7916 8.05001 19.9499 3.20834 13.9999 3.20834Z" fill="#0057A4"/>
<path d="M10.5 25.375H9.33336C8.85503 25.375 8.45836 24.9783 8.45836 24.5C8.45836 24.0217 8.8317 23.6367 9.31003 23.625C7.47836 17.3717 7.47836 10.6283 9.31003 4.375C8.8317 4.36333 8.45836 3.97833 8.45836 3.5C8.45836 3.02167 8.85503 2.625 9.33336 2.625H10.5C10.78 2.625 11.0484 2.765 11.2117 2.98667C11.375 3.22 11.4217 3.51167 11.3284 3.78C9.13503 10.3717 9.13503 17.6283 11.3284 24.2317C11.4217 24.5 11.375 24.7917 11.2117 25.025C11.0484 25.235 10.78 25.375 10.5 25.375Z" fill="#0057A4"/>
<path d="M17.5001 25.375C17.4067 25.375 17.3134 25.3633 17.2201 25.3283C16.7651 25.1767 16.5084 24.675 16.6717 24.22C18.8651 17.6283 18.8651 10.3717 16.6717 3.76834C16.5201 3.31334 16.7651 2.81167 17.2201 2.66001C17.6867 2.50834 18.1767 2.75334 18.3284 3.20834C20.6501 10.1617 20.6501 17.815 18.3284 24.7567C18.2117 25.1417 17.8617 25.375 17.5001 25.375Z" fill="#0057A4"/>
<path d="M14 20.0667C10.745 20.0667 7.50167 19.6117 4.375 18.69C4.36333 19.1567 3.97833 19.5417 3.5 19.5417C3.02167 19.5417 2.625 19.145 2.625 18.6667V17.5C2.625 17.22 2.765 16.9517 2.98667 16.7883C3.22 16.625 3.51167 16.5783 3.78 16.6717C10.3717 18.865 17.64 18.865 24.2317 16.6717C24.5 16.5783 24.7917 16.625 25.025 16.7883C25.2583 16.9517 25.3867 17.22 25.3867 17.5V18.6667C25.3867 19.145 24.99 19.5417 24.5117 19.5417C24.0333 19.5417 23.6483 19.1683 23.6367 18.69C20.4983 19.6117 17.255 20.0667 14 20.0667Z" fill="#0057A4"/>
<path d="M24.4999 11.375C24.4066 11.375 24.3132 11.3633 24.2199 11.3283C17.6282 9.135 10.3599 9.135 3.76824 11.3283C3.30158 11.48 2.81158 11.235 2.65991 10.78C2.51991 10.3133 2.76491 9.82334 3.21991 9.67167C10.1732 7.35 17.8266 7.35 24.7682 9.67167C25.2232 9.82334 25.4799 10.325 25.3166 10.78C25.2116 11.1417 24.8616 11.375 24.4999 11.375Z" fill="#0057A4"/>
</svg>
