<svg width="28" height="28" viewBox="0 0 28 28" fill="none" xmlns="http://www.w3.org/2000/svg">
<g clip-path="url(#clip0_12_194)">
<path d="M24.0566 10.15C22.8433 4.74834 18.13 2.33334 14 2.33334C14 2.33334 14 2.33334 13.9883 2.33334C9.86995 2.33334 5.16829 4.74834 3.94329 10.1383C2.56662 16.1583 6.25329 21.2567 9.58995 24.4767C10.8266 25.6667 12.4133 26.2617 14 26.2617C15.5866 26.2617 17.1733 25.6667 18.3983 24.4767C21.735 21.2567 25.4216 16.17 24.0566 10.15ZM17.8266 11.1183L13.16 15.785C12.985 15.96 12.7633 16.0417 12.5416 16.0417C12.32 16.0417 12.0983 15.96 11.9233 15.785L10.1733 14.035C9.83495 13.6967 9.83495 13.1367 10.1733 12.7983C10.5116 12.46 11.0716 12.46 11.41 12.7983L12.5416 13.93L16.59 9.88168C16.9283 9.54334 17.4883 9.54334 17.8266 9.88168C18.165 10.22 18.165 10.78 17.8266 11.1183Z" fill="#0057A4"/>
</g>
<defs>
<clipPath id="clip0_12_194">
<rect width="28" height="28" fill="white"/>
</clipPath>
</defs>
</svg>
