<svg width="28" height="28" viewBox="0 0 28 28" fill="none" xmlns="http://www.w3.org/2000/svg">
<path d="M19.8333 4.08334H8.16658C4.66659 4.08334 2.33325 5.83334 2.33325 9.91668V18.0833C2.33325 22.1667 4.66659 23.9167 8.16658 23.9167H19.8333C23.3333 23.9167 25.6666 22.1667 25.6666 18.0833V9.91668C25.6666 5.83334 23.3333 4.08334 19.8333 4.08334ZM20.3816 11.1883L16.7299 14.105C15.9599 14.7233 14.9799 15.0267 13.9999 15.0267C13.0199 15.0267 12.0283 14.7233 11.2699 14.105L7.61825 11.1883C7.24492 10.885 7.18658 10.325 7.47825 9.95168C7.78158 9.57834 8.32992 9.50834 8.70325 9.81168L12.3549 12.7283C13.2416 13.44 14.7466 13.44 15.6333 12.7283L19.2849 9.81168C19.6583 9.50834 20.2183 9.56668 20.5099 9.95168C20.8133 10.325 20.7549 10.885 20.3816 11.1883Z" fill="#0057A4"/>
</svg>
